<svg width="22" height="27" viewBox="0 0 22 27" fill="none" xmlns="http://www.w3.org/2000/svg">
<path d="M18.3937 14.268C18.382 12.0558 19.3523 10.386 21.3162 9.15635C20.2173 7.53485 18.5574 6.64273 16.3656 6.46792C14.2906 6.29914 12.0228 7.71569 11.1929 7.71569C10.3162 7.71569 8.30553 6.5282 6.72742 6.5282C3.46599 6.58245 0 9.2106 0 14.5573C0 16.1366 0.280553 17.7682 0.841658 19.452C1.5898 21.6642 4.29012 27.0893 7.10733 26.9989C8.58023 26.9627 9.62062 25.9199 11.5377 25.9199C13.3964 25.9199 14.3608 26.9989 16.0032 26.9989C18.8438 26.9567 21.2869 22.0259 22 19.8076C18.1892 17.9571 18.3937 14.3825 18.3937 14.268ZM15.0855 4.37021C16.6812 2.41718 16.5351 0.638956 16.4883 0C15.0797 0.0843903 13.449 0.988573 12.5197 2.10373C11.4968 3.29725 10.8948 4.77408 11.0234 6.43778C12.5489 6.55834 13.94 5.7506 15.0855 4.37021Z" fill="#29292D"/>
</svg>
