<svg width="140" height="83" viewBox="0 0 140 83" fill="none" xmlns="http://www.w3.org/2000/svg">
<path d="M63.0961 82.4365C63.0106 81.4133 63.2011 80.3859 63.648 79.4615C64.0948 78.5371 64.7815 77.7495 65.6365 77.181C66.4914 76.6125 67.4833 76.2838 68.5086 76.2292C69.5339 76.1746 70.555 76.3962 71.4655 76.8708C71.9061 75.6928 72.3583 74.4938 73.1375 73.5083C73.9167 72.5227 75.0947 71.7667 76.3516 71.8131V82.4365H63.0961Z" fill="#EBEBEB"/>
<path d="M28.1714 41.2808L21.3953 54.9537L23.4198 55.0302L17.6756 65.8948H20.6926L15.9873 75.5466H42.2896L36.4967 65.8948L39.2726 65.7742L33.7232 54.9143L35.7732 54.7937L28.1714 41.2808Z" fill="#EBEBEB"/>
<path d="M29.3199 57.1406C29.3524 57.1406 29.2944 62.9382 29.19 70.0715C29.0857 77.2048 28.9744 83.0023 28.9396 83C28.9048 82.9977 28.9651 77.2025 29.0694 70.0692C29.1738 62.9359 29.2851 57.1406 29.3199 57.1406Z" fill="#E0E0E0"/>
<path d="M32.543 60.3296C32.4127 60.5515 32.2646 60.7625 32.1001 60.9604C31.8148 61.3407 31.4044 61.8532 30.9406 62.4144L29.7579 63.8452C29.6021 64.0499 29.4324 64.2436 29.25 64.425C29.3784 64.2017 29.5258 63.9899 29.6906 63.7919C29.9782 63.4139 30.3863 62.8991 30.8501 62.3379L32.0328 60.907C32.1881 60.702 32.3586 60.5089 32.543 60.3296Z" fill="#E0E0E0"/>
<path d="M29.2588 64.4247C28.7417 64.0963 28.246 63.7353 27.7746 63.3441C27.2786 62.9827 26.8068 62.5891 26.3623 62.166C26.8804 62.4941 27.3769 62.8551 27.8488 63.2467C28.3449 63.607 28.816 64.0006 29.2588 64.4247Z" fill="#E0E0E0"/>
<path d="M29.076 71.1293C28.898 71.0144 28.7318 70.8824 28.5797 70.735C28.2829 70.4823 27.884 70.1344 27.4202 69.7587C26.9564 69.383 26.5343 69.0514 26.2282 68.8126C26.0545 68.6916 25.8915 68.5558 25.7412 68.4067C25.9305 68.5007 26.11 68.6134 26.2769 68.743C26.5992 68.9749 27.0329 69.288 27.4967 69.6706C27.9605 70.0532 28.3617 70.4081 28.6446 70.6771C28.8026 70.8136 28.9471 70.965 29.076 71.1293Z" fill="#E0E0E0"/>
<path d="M32.8237 66.9849C32.7903 67.0514 32.7491 67.1137 32.7008 67.1704C32.6173 67.284 32.4898 67.444 32.3274 67.6342C32.0005 68.0215 31.5274 68.5363 30.9917 69.0952C30.456 69.6541 29.9759 70.155 29.6351 70.5283C29.4597 70.7369 29.2731 70.9359 29.0762 71.1243C29.1064 71.0573 29.1471 70.9954 29.1968 70.9411C29.2802 70.8252 29.4078 70.6651 29.5701 70.4773C29.8971 70.0877 30.3702 69.5729 30.9059 69.0163C31.4416 68.4598 31.9216 67.9542 32.2625 67.5809C32.4382 67.3718 32.6256 67.1728 32.8237 66.9849Z" fill="#E0E0E0"/>
<path d="M83.3408 56.8393H110.821L115.956 49.5483L121.338 57.0457L127.662 56.9437L120.846 47.7627L90.2051 47.8902L83.3408 56.8393Z" fill="#E0E0E0"/>
<path d="M97.084 56.9437V82.5016H124.525V56.9437H121.38L115.956 49.5483L110.806 56.8324L97.084 56.9437Z" fill="#F5F5F5"/>
<path d="M107.38 71.4214H100.961V82.5017H107.38V71.4214Z" fill="#E0E0E0"/>
<path d="M121.338 71.1079H111.228V77.3716H121.338V71.1079Z" fill="#E0E0E0"/>
<path d="M114.263 71.1079H114.031V77.4296H114.263V71.1079Z" fill="#EBEBEB"/>
<path d="M118.466 71.1079H118.234V77.4296H118.466V71.1079Z" fill="#EBEBEB"/>
<path d="M118.351 74.3433H114.146V74.5752H118.351V74.3433Z" fill="#EBEBEB"/>
<path d="M121.338 58.5737H111.228V64.8374H121.338V58.5737Z" fill="#E0E0E0"/>
<path d="M114.263 58.5737H114.031V64.8954H114.263V58.5737Z" fill="#EBEBEB"/>
<path d="M118.466 58.5737H118.234V64.8954H118.466V58.5737Z" fill="#EBEBEB"/>
<path d="M118.351 61.8086H114.146V62.0405H118.351V61.8086Z" fill="#EBEBEB"/>
<path d="M106.709 58.6294H100.332V64.6681H106.709V58.6294Z" fill="#E0E0E0"/>
<path d="M97.0855 56.9434H85.9473V82.4989H97.0855V56.9434Z" fill="#E0E0E0"/>
<path d="M103.637 58.6294H103.405V64.6681H103.637V58.6294Z" fill="#EBEBEB"/>
<path d="M106.709 61.6812H100.332V61.9131H106.709V61.6812Z" fill="#EBEBEB"/>
<path d="M115.942 55.7797C116.689 55.7797 117.294 55.1744 117.294 54.4277C117.294 53.681 116.689 53.0757 115.942 53.0757C115.195 53.0757 114.59 53.681 114.59 54.4277C114.59 55.1744 115.195 55.7797 115.942 55.7797Z" fill="#E0E0E0"/>
<path d="M106.297 52.7692L108.002 50.6635V45.6011H104.431V52.8086L106.297 52.7692Z" fill="#F5F5F5"/>
<path d="M106.296 52.7692V45.6011H108V50.6635L106.296 52.7692Z" fill="#EBEBEB"/>
<path d="M108.243 44.8569H104.031V45.6013H108.243V44.8569Z" fill="#EBEBEB"/>
<path d="M97.0831 68.1235H76.3604V82.5015H97.0831V68.1235Z" fill="#F5F5F5"/>
<path d="M89.3353 68.1235H76.3604V82.5015H89.3353V68.1235Z" fill="#E0E0E0"/>
<path d="M87.4042 72.7593H78.9189V82.476H87.4042V72.7593Z" fill="#F5F5F5"/>
<path d="M95.9425 72.7197H90.4766V74.1111H95.9425V72.7197Z" fill="#EBEBEB"/>
<path d="M83.3408 56.8395V57.5792H110.805V56.8325L83.3408 56.8395Z" fill="#EBEBEB"/>
<path d="M110.805 57.5791L115.941 50.3693L115.955 49.5483L110.821 56.8393L110.805 57.5791Z" fill="#EBEBEB"/>
<path d="M127.53 56.9434H121.38V57.4211H127.53V56.9434Z" fill="#EBEBEB"/>
<path d="M105.19 69.7236H102.92V70.5863H105.19V69.7236Z" fill="#E0E0E0"/>
<path d="M139.22 82.5015C139.22 82.5339 108.052 82.5618 69.6123 82.5618C31.1723 82.5618 0 82.5339 0 82.5015C0 82.469 31.1607 82.4365 69.61 82.4365C108.059 82.4365 139.22 82.4667 139.22 82.5015Z" fill="#263238"/>
<path d="M85.3625 15.236C80.2259 8.16996 72.7587 4.87695 64.9552 4.87695C64.9552 4.87695 45.8719 4.87695 40.2205 21.9612C38.1334 28.2573 38.5972 35.0938 41.1249 41.2253C42.0739 43.5562 43.2696 45.7788 44.6916 47.8553C49.6287 54.9747 64.9714 74.4104 64.9714 74.4104H68.3061C72.587 68.4645 83.3635 48.7134 86.5916 42.3801C90.6383 34.4328 91.2598 23.3479 85.3625 15.236ZM68.1484 46.8373C64.924 46.8373 61.7719 45.8811 59.0909 44.0896C56.4099 42.2982 54.3203 39.7519 53.0865 36.7728C51.8526 33.7938 51.5299 30.5157 52.1592 27.3532C52.7884 24.1907 54.3413 21.2859 56.6215 19.006C58.9017 16.7261 61.8068 15.1736 64.9694 14.5448C68.1319 13.9161 71.4099 14.2392 74.3888 15.4735C77.3677 16.7078 79.9137 18.7977 81.7048 21.479C83.4959 24.1602 84.4516 27.3124 84.4511 30.5369C84.4505 34.8602 82.7327 39.0063 79.6754 42.0631C76.6181 45.12 72.4718 46.8373 68.1484 46.8373Z" fill="#FF725E"/>
<path opacity="0.4" d="M85.3625 15.236C80.2259 8.16996 72.7587 4.87695 64.9552 4.87695C64.9552 4.87695 45.8719 4.87695 40.2205 21.9612C38.1334 28.2573 38.5972 35.0938 41.1249 41.2253C42.0739 43.5562 43.2696 45.7788 44.6916 47.8553C49.6287 54.9747 64.9714 74.4104 64.9714 74.4104H68.3061C72.587 68.4645 83.3635 48.7134 86.5916 42.3801C90.6383 34.4328 91.2598 23.3479 85.3625 15.236ZM68.1484 46.8373C64.924 46.8373 61.7719 45.8811 59.0909 44.0896C56.4099 42.2982 54.3203 39.7519 53.0865 36.7728C51.8526 33.7938 51.5299 30.5157 52.1592 27.3532C52.7884 24.1907 54.3413 21.2859 56.6215 19.006C58.9017 16.7261 61.8068 15.1736 64.9694 14.5448C68.1319 13.9161 71.4099 14.2392 74.3888 15.4735C77.3677 16.7078 79.9137 18.7977 81.7048 21.479C83.4959 24.1602 84.4516 27.3124 84.4511 30.5369C84.4505 34.8602 82.7327 39.0063 79.6754 42.0631C76.6181 45.12 72.4718 46.8373 68.1484 46.8373Z" fill="black"/>
<path d="M88.7178 15.3685C83.5812 8.30473 76.1139 5.01172 68.3104 5.01172C68.3104 5.01172 49.2272 5.01172 43.5758 22.0959C41.4887 28.3921 41.9525 35.2285 44.4825 41.36C45.4302 43.6911 46.6252 45.9138 48.0468 47.9901C52.984 55.1072 68.3197 74.5521 68.3197 74.5521C68.3197 74.5521 86.0393 50.1769 89.9399 42.5242C93.9936 34.563 94.6174 23.4827 88.7178 15.3685ZM68.169 46.9721C64.9446 46.9721 61.7926 46.0159 59.1117 44.2246C56.4307 42.4332 54.3412 39.8871 53.1072 36.9081C51.8733 33.9292 51.5505 30.6513 52.1795 27.4888C52.8086 24.3264 54.3612 21.4216 56.6412 19.1416C58.9212 16.8616 61.8261 15.3089 64.9885 14.6799C68.1509 14.0509 71.4288 14.3737 74.4078 15.6076C77.3867 16.8415 79.9328 18.9311 81.7242 21.6121C83.5155 24.293 84.4717 27.445 84.4717 30.6693C84.4877 32.8147 84.077 34.9419 83.2634 36.9271C82.4498 38.9122 81.2496 40.7158 79.7325 42.2329C78.2155 43.7499 76.4119 44.9502 74.4267 45.7638C72.4415 46.5774 70.3144 46.9881 68.169 46.9721Z" fill="#FF725E"/>
<path d="M68.149 14.2339C64.7801 14.2339 61.4938 15.2775 58.7423 17.2214C55.9907 19.1653 53.9089 21.9139 52.7832 25.0892C54.041 22.3093 56.1746 20.0177 58.8577 18.5648C61.5408 17.1118 64.6259 16.5775 67.6414 17.0434C70.6568 17.5093 73.4368 18.9498 75.5563 21.1448C77.6758 23.3397 79.0183 26.1684 79.3785 29.1983C79.7386 32.2282 79.0967 35.2927 77.5509 37.9234C76.005 40.5541 73.6402 42.6062 70.818 43.766C67.9958 44.9259 64.8714 45.1297 61.9224 44.3463C58.9735 43.5628 56.3622 41.8353 54.4877 39.4277C56.0286 41.7946 58.1581 43.7206 60.6674 45.0167C63.1768 46.3129 65.9798 46.9348 68.8019 46.8215C71.6239 46.7083 74.3681 45.8637 76.7655 44.3706C79.1629 42.8775 81.1312 40.7871 82.4775 38.3043C83.8238 35.8215 84.5019 33.0315 84.4453 30.2078C84.3887 27.384 83.5994 24.6234 82.1548 22.1965C80.7101 19.7697 78.6597 17.7598 76.2044 16.3639C73.7492 14.968 70.9733 14.234 68.149 14.2339Z" fill="#FF725E"/>
<path opacity="0.4" d="M68.149 14.2339C64.7801 14.2339 61.4938 15.2775 58.7423 17.2214C55.9907 19.1653 53.9089 21.9139 52.7832 25.0892C54.041 22.3093 56.1746 20.0177 58.8577 18.5648C61.5408 17.1118 64.6259 16.5775 67.6414 17.0434C70.6568 17.5093 73.4368 18.9498 75.5563 21.1448C77.6758 23.3397 79.0183 26.1684 79.3785 29.1983C79.7386 32.2282 79.0967 35.2927 77.5509 37.9234C76.005 40.5541 73.6402 42.6062 70.818 43.766C67.9958 44.9259 64.8714 45.1297 61.9224 44.3463C58.9735 43.5628 56.3622 41.8353 54.4877 39.4277C56.0286 41.7946 58.1581 43.7206 60.6674 45.0167C63.1768 46.3129 65.9798 46.9348 68.8019 46.8215C71.6239 46.7083 74.3681 45.8637 76.7655 44.3706C79.1629 42.8775 81.1312 40.7871 82.4775 38.3043C83.8238 35.8215 84.5019 33.0315 84.4453 30.2078C84.3887 27.384 83.5994 24.6234 82.1548 22.1965C80.7101 19.7697 78.6597 17.7598 76.2044 16.3639C73.7492 14.968 70.9733 14.234 68.149 14.2339Z" fill="black"/>
<path d="M100.654 38.0112C99.9983 37.5606 99.2025 37.3606 98.4116 37.4477C97.0758 37.6008 95.1395 37.7979 95.1395 37.7979V37.8605L85.7869 38.4356L82.9229 32.6265L78.584 35.4858C78.584 35.4858 79.1545 36.3995 81.5871 40.8914C82.062 41.7682 82.7945 42.4781 83.6857 42.9251C84.577 43.3722 85.584 43.535 86.5707 43.3914L97.5837 41.768V41.7472C98.7223 41.6846 99.9537 41.5779 100.135 41.4132C100.478 41.1025 100.789 39.9662 100.789 39.9662C100.789 39.9662 102.75 41.1257 103.128 41.1581C103.506 41.1906 103.576 40.8683 103.81 40.5343C103.977 40.3279 101.955 38.8971 100.654 38.0112Z" fill="#FFBE9D"/>
<path d="M83.5073 32.2553C83.5073 32.2553 81.6892 28.7559 80.0288 25.4513C77.9834 21.3954 73.4729 20.5814 73.4729 20.5814L66.9379 19.7234C66.9379 19.7234 61.4697 17.2536 56.391 23.3874L52.2168 28.051L53.105 28.851L57.2444 32.5615L58.063 33.2989L59.9368 31.3695L59.0672 36.2557L57.5297 43.0689L60.8528 42.6677L63.1 28.9276L75.7711 29.9363L74.76 38.6071C74.9641 38.577 76.4969 38.2755 76.9955 36.193C77.1558 35.5285 77.1558 34.8354 76.9955 34.1709L77.7283 36.0469L83.5073 32.2553Z" fill="#455A64"/>
<path d="M63.084 28.9346L60.8368 42.6748L57.5137 43.0759C59.7334 44.9911 62.4291 46.2714 65.3161 46.7816C68.2032 47.2918 71.1744 47.013 73.9161 45.9747L74.7602 38.6072L75.7551 29.9433L63.084 28.9346Z" fill="#263238"/>
<path d="M63.8342 19.0418L63.5605 30.2032L65.6662 30.5372L65.9491 19.225C65.9491 19.225 65.214 18.8772 63.8342 19.0418Z" fill="#263238"/>
<path d="M72.7773 30.2588L74.5189 20.6719C74.6186 20.5653 76.0472 21.0778 76.4785 21.5648L74.9155 30.4582L72.7773 30.2588Z" fill="#263238"/>
<path d="M65.7506 28.8952C65.773 28.9561 65.784 29.0206 65.7831 29.0854C65.7989 29.2613 65.7989 29.4382 65.7831 29.6141C65.7668 29.884 65.6761 30.1441 65.521 30.3655C65.4255 30.4978 65.2989 30.6045 65.1523 30.6762C64.9903 30.7493 64.8099 30.7712 64.6352 30.7389C64.4714 30.7042 64.3166 30.6364 64.1801 30.5394C64.0437 30.4425 63.9286 30.3186 63.8421 30.1753C63.7079 29.9436 63.6285 29.6842 63.6102 29.417C63.5948 29.2411 63.5948 29.0642 63.6102 28.8883C63.609 28.8225 63.6208 28.7571 63.645 28.6958C63.6658 28.6958 63.645 28.9741 63.6937 29.4077C63.726 29.6539 63.8089 29.8908 63.9372 30.1034C64.0174 30.2315 64.1226 30.342 64.2465 30.4285C64.3705 30.5149 64.5105 30.5755 64.6584 30.6067C64.8049 30.6326 64.9557 30.6162 65.0933 30.5595C65.2309 30.5029 65.3495 30.4082 65.4352 30.2866C65.5832 30.0819 65.6752 29.8421 65.7019 29.5909C65.7529 29.1735 65.7274 28.8952 65.7506 28.8952Z" fill="#455A64"/>
<path d="M64.5075 29.8809C64.3885 29.8335 64.2932 29.7408 64.2425 29.6232C64.1918 29.5056 64.19 29.3726 64.2373 29.2536C64.2847 29.1346 64.3774 29.0393 64.495 28.9886C64.6127 28.9379 64.7456 28.9361 64.8646 28.9834C64.9236 29.0069 64.9773 29.0417 65.0228 29.0859C65.0682 29.1301 65.1046 29.1829 65.1296 29.2411C65.1547 29.2994 65.1681 29.362 65.169 29.4254C65.1699 29.4888 65.1583 29.5518 65.1348 29.6107C65.1114 29.6697 65.0765 29.7234 65.0323 29.7689C64.9881 29.8143 64.9354 29.8506 64.8771 29.8757C64.8189 29.9008 64.7562 29.9142 64.6928 29.9151C64.6294 29.916 64.5664 29.9044 64.5075 29.8809Z" fill="#455A64"/>
<path d="M74.4147 29.9409C74.4151 30.0368 74.3871 30.1307 74.3341 30.2108C74.2811 30.2908 74.2056 30.3532 74.1171 30.3903C74.0285 30.4273 73.931 30.4373 73.8369 30.4188C73.7427 30.4004 73.6561 30.3544 73.5881 30.2867C73.5201 30.219 73.4737 30.1327 73.4548 30.0386C73.4359 29.9445 73.4454 29.8469 73.482 29.7582C73.5186 29.6695 73.5807 29.5937 73.6605 29.5403C73.7402 29.487 73.834 29.4585 73.93 29.4585C74.0581 29.4585 74.1811 29.5092 74.2719 29.5996C74.3627 29.69 74.414 29.8127 74.4147 29.9409Z" fill="#455A64"/>
<path d="M75.0615 29.6069C75.0576 29.7996 75.0208 29.9902 74.9525 30.1704C74.8874 30.3754 74.7772 30.5632 74.6301 30.72C74.5362 30.8173 74.4215 30.892 74.2946 30.9386C74.1677 30.9852 74.0319 31.0025 73.8973 30.989C73.6288 30.96 73.3807 30.8318 73.2016 30.6296C73.0622 30.4645 72.9693 30.2651 72.9326 30.0522C72.9057 29.9123 72.901 29.7691 72.9187 29.6278C72.9215 29.5751 72.9358 29.5237 72.9605 29.4771C72.9636 29.6646 72.9822 29.8515 73.0161 30.0359C73.0612 30.2287 73.1537 30.4073 73.2851 30.5554C73.4486 30.7315 73.6701 30.8427 73.9089 30.8685C74.0269 30.8808 74.1462 30.8663 74.2578 30.8262C74.3694 30.786 74.4705 30.7212 74.5536 30.6366C74.6939 30.4954 74.8029 30.3263 74.8736 30.1403C74.9942 29.8179 75.0406 29.6 75.0615 29.6069Z" fill="#455A64"/>
<path d="M64.4682 34.2008C64.452 34.2008 64.445 34.108 64.4497 33.9689C64.4497 33.897 64.4497 33.8089 64.4612 33.7138C64.4612 33.6628 64.4612 33.6118 64.4728 33.5631V33.4842V33.4425V33.4031L64.5401 33.3428C64.8125 33.352 65.0821 33.4013 65.3402 33.4889C65.0689 33.5192 64.7947 33.5099 64.5262 33.461C64.5123 33.475 64.6537 33.3474 64.5934 33.4031V33.4379V33.4796V33.5608C64.5934 33.6118 64.5818 33.6605 64.5749 33.7138C64.5749 33.8112 64.5494 33.897 64.5378 33.9712C64.5076 34.1034 64.4844 34.2008 64.4682 34.2008Z" fill="#455A64"/>
<path d="M64.1292 37.3874C64.0987 37.1193 64.1073 36.8482 64.1547 36.5827C64.1633 36.3126 64.2117 36.0454 64.2985 35.7896C64.3319 36.0574 64.3241 36.3288 64.2753 36.5943C64.2647 36.8642 64.2155 37.1313 64.1292 37.3874Z" fill="#455A64"/>
<path d="M64.6003 40.1539C64.3353 40.0886 64.0813 39.9847 63.8466 39.8455C63.8466 39.8594 63.784 39.7318 63.8118 39.7852V39.7504V39.7086V39.6275L63.8327 39.4767C63.8466 39.3817 63.8605 39.2935 63.8721 39.2216C63.8999 39.0779 63.9231 38.9897 63.9394 38.9897C63.9556 38.9897 63.9626 39.0848 63.9579 39.2216C63.9579 39.2959 63.9533 39.3817 63.944 39.4791C63.944 39.5324 63.944 39.5811 63.9301 39.6321V39.711V39.7527V39.7898C63.9602 39.8431 63.8907 39.7156 63.8976 39.7295C64.1514 39.8358 64.3881 39.9788 64.6003 40.1539Z" fill="#455A64"/>
<path d="M66.743 41.2179C66.3529 41.1169 65.987 40.9387 65.667 40.6938C65.8665 40.7267 66.0573 40.7992 66.2282 40.9072C66.4187 40.9757 66.5937 41.0813 66.743 41.2179Z" fill="#455A64"/>
<path d="M69.2947 41.8053C69.0703 41.961 68.8241 42.0829 68.5642 42.167H68.5062H68.4877L68.4506 42.1485L68.3787 42.1114L68.2442 42.0418L68.0123 41.9143C67.887 41.84 67.8128 41.7867 67.8198 41.7705C67.8267 41.7542 67.9149 41.7705 68.0517 41.8377C68.1189 41.8656 68.2001 41.9003 68.2836 41.9421L68.4204 42.007L68.4946 42.0418L68.5317 42.058H68.5503H68.5109C68.7581 41.9354 69.0223 41.8502 69.2947 41.8053Z" fill="#455A64"/>
<path d="M71.0262 41.1022C71.0378 41.1346 70.8546 41.2367 70.6157 41.3341C70.3769 41.4315 70.1728 41.4848 70.1519 41.4547C70.1311 41.4245 70.3235 41.3202 70.5624 41.2228C70.8013 41.1254 71.0123 41.072 71.0262 41.1022Z" fill="#455A64"/>
<path d="M72.728 39.6392C72.7586 39.9102 72.7508 40.1843 72.7048 40.4531L72.6654 40.5042H72.6469L72.6074 40.5204L72.5332 40.5505L72.3918 40.6039C72.299 40.6363 72.2179 40.6665 72.146 40.6874C72.0068 40.7337 71.9141 40.7546 71.9141 40.7384C71.9141 40.7221 71.9883 40.6758 72.1181 40.6085L72.35 40.4995L72.4915 40.4392L72.5657 40.4091L72.6028 40.3928H72.6237L72.5866 40.4439C72.5931 40.1701 72.6408 39.8988 72.728 39.6392Z" fill="#455A64"/>
<path d="M73.037 36.6338C73.0677 37.1398 73.0152 37.6475 72.8817 38.1365C72.8493 37.885 72.8556 37.6301 72.9002 37.3805C72.9066 37.126 72.9528 36.874 73.037 36.6338Z" fill="#455A64"/>
<path d="M72.4688 34.2381C72.74 34.2078 73.0142 34.2171 73.2827 34.2659L73.3361 34.3309V34.368V34.4097V34.4886C73.3361 34.5396 73.3245 34.5883 73.3175 34.6393C73.3036 34.7367 73.292 34.8225 73.2781 34.8967C73.2526 35.0405 73.2271 35.1286 73.2108 35.1286C73.1946 35.1286 73.19 35.0335 73.1923 34.8967C73.1923 34.8225 73.1923 34.7344 73.2062 34.637L73.2178 34.4863V34.4051V34.3286L73.2711 34.3935C72.9975 34.3815 72.7271 34.3291 72.4688 34.2381Z" fill="#455A64"/>
<path d="M69.623 33.932C70.1029 33.9022 70.5844 33.9539 71.0469 34.0851C70.808 34.1189 70.5652 34.1134 70.328 34.0688C70.0873 34.061 69.8493 34.0148 69.623 33.932Z" fill="#455A64"/>
<path d="M66.7778 33.6234C67.0167 33.5896 67.2596 33.5951 67.4967 33.6396C67.7344 33.6485 67.9691 33.6946 68.1924 33.7764C67.7126 33.8063 67.2311 33.7545 66.7686 33.6234H66.7778Z" fill="#455A64"/>
<path d="M51.8689 29.6951C51.8527 29.9733 51.8457 30.2539 51.8457 30.5369C51.8449 31.6383 51.956 32.737 52.1773 33.816V33.8484C52.2052 33.9829 52.2376 34.1151 52.2701 34.2473C52.3953 34.7714 52.5461 35.2885 52.713 35.7987C52.7339 35.8613 52.7548 35.9263 52.778 35.9889C53.3763 35.8544 55.1109 34.3517 57.1076 32.4756L52.9704 28.7651C52.3976 29.331 52.0567 29.6301 51.8689 29.6951Z" fill="#FFBE9D"/>
<path d="M77.9854 5.60986C78.1292 7.21231 79.9543 8.56198 81.5637 8.51328C82.4495 8.48545 83.347 8.09121 84.1981 8.33703C85.6266 8.75213 86.204 10.7442 87.6766 11.0109C88.7712 11.2103 89.78 10.3152 90.8908 10.2641C91.7071 10.2201 92.477 10.6282 93.1541 11.0874C93.8313 11.5466 94.476 12.0776 95.2413 12.3397C96.0065 12.6017 96.7254 12.1379 97.5069 11.899C97.6994 12.3953 97.827 13.0075 98.0751 13.5224C98.3232 14.0372 98.6247 14.9903 98.1841 15.1944C98.1841 15.1944 96.9527 15.8321 96.2408 15.7973C96.5283 16.0873 96.8873 16.2961 97.2815 16.4028C97.6757 16.5095 98.091 16.5102 98.4856 16.4049C98.6827 17.5969 98.8311 18.9721 98.0218 19.8695C97.6436 20.2586 97.16 20.5286 96.6303 20.6464C94.047 21.3143 91.3453 19.5077 88.7225 19.9994C87.6465 20.2035 86.6609 20.7832 85.5733 20.927C85.0369 20.9935 84.4926 20.952 83.9725 20.805C83.4524 20.6581 82.9669 20.4086 82.5446 20.0713C81.5103 19.2341 80.7984 17.8334 79.4858 17.6131C78.9038 17.518 78.3147 17.685 77.7443 17.845C77.1738 18.005 76.5847 18.1581 76.0027 18.0352C75.4206 17.9123 74.8826 17.4206 74.9081 16.8316" fill="#263238"/>
<path d="M72.8566 21.1727C73.1465 19.5494 73.4804 17.8635 73.4804 17.8635C73.4804 17.8635 75.6232 17.8844 76.5345 15.243C77.4019 12.7245 78.028 6.66262 78.028 6.66262C76.6535 5.80702 75.05 5.39282 73.4332 5.47574C71.8163 5.55865 70.2635 6.13471 68.9838 7.12642L66.848 20.2869C66.5999 21.8151 67.7153 23.2436 69.3525 23.4964C71.0014 23.7654 72.5713 22.7126 72.8566 21.1727Z" fill="#FFBE9D"/>
<path d="M76.4249 11.2032C76.41 11.294 76.3602 11.3754 76.2861 11.43C76.212 11.4846 76.1195 11.5081 76.0283 11.4954C75.9831 11.4914 75.9392 11.4783 75.8991 11.457C75.8591 11.4356 75.8237 11.4065 75.7952 11.3712C75.7666 11.336 75.7455 11.2953 75.7329 11.2517C75.7204 11.2081 75.7167 11.1624 75.7222 11.1174C75.7376 11.0264 75.7879 10.9449 75.8623 10.8904C75.9368 10.8358 76.0296 10.8124 76.1211 10.8252C76.166 10.8295 76.2097 10.8428 76.2495 10.8642C76.2893 10.8857 76.3244 10.9149 76.3527 10.9501C76.381 10.9853 76.402 11.0259 76.4144 11.0694C76.4268 11.1128 76.4303 11.1583 76.4249 11.2032Z" fill="#263238"/>
<path d="M77.0578 10.9132C77.0068 10.9503 76.7772 10.7092 76.4015 10.6442C76.0259 10.5793 75.7197 10.7161 75.6873 10.6651C75.6548 10.6141 75.729 10.5654 75.8635 10.5005C76.0459 10.4157 76.2501 10.3898 76.4479 10.4262C76.642 10.4616 76.8203 10.5564 76.9581 10.6976C77.0578 10.8066 77.0833 10.8947 77.0578 10.9132Z" fill="#263238"/>
<path d="M72.5753 10.5933C72.5599 10.6843 72.5096 10.7658 72.4351 10.8203C72.3606 10.8749 72.2678 10.8983 72.1764 10.8855C72.1314 10.8812 72.0877 10.8679 72.048 10.8465C72.0082 10.825 71.9731 10.7958 71.9448 10.7606C71.9165 10.7254 71.8955 10.6848 71.8831 10.6414C71.8707 10.5979 71.8671 10.5524 71.8726 10.5075C71.888 10.4165 71.9383 10.3351 72.0128 10.2805C72.0872 10.2259 72.18 10.2026 72.2715 10.2153C72.3165 10.2196 72.3601 10.2329 72.3999 10.2544C72.4397 10.2758 72.4748 10.305 72.5031 10.3403C72.5314 10.3755 72.5524 10.416 72.5648 10.4595C72.5772 10.503 72.5807 10.5485 72.5753 10.5933Z" fill="#263238"/>
<path d="M73.1224 10.359C73.0714 10.3962 72.8418 10.155 72.4661 10.09C72.0905 10.0251 71.7844 10.1642 71.7496 10.1109C71.7148 10.0576 71.7913 10.0135 71.9281 9.94626C72.1103 9.8635 72.3134 9.83841 72.5102 9.87437C72.7056 9.90772 72.8853 10.0028 73.0227 10.1457C73.1224 10.2547 73.1479 10.3428 73.1224 10.359Z" fill="#263238"/>
<path d="M73.9922 13.3806C74.2008 13.354 74.412 13.354 74.6206 13.3806C74.718 13.3806 74.8131 13.3806 74.8409 13.3226C74.8658 13.2253 74.861 13.1227 74.827 13.0281C74.7783 12.78 74.7273 12.5203 74.6717 12.2489C74.4606 11.1428 74.3284 10.2384 74.3725 10.2291C74.4166 10.2198 74.623 11.1126 74.8363 12.2211C74.885 12.4924 74.9337 12.7522 74.9778 13.0003C75.0186 13.1264 75.0128 13.263 74.9615 13.3853C74.9418 13.4165 74.9152 13.4429 74.8839 13.4625C74.8527 13.4822 74.8174 13.4946 74.7807 13.4989C74.7252 13.5051 74.6692 13.5051 74.6137 13.4989C74.4024 13.4853 74.1937 13.4455 73.9922 13.3806Z" fill="#263238"/>
<path d="M73.4699 17.8635C72.1861 17.6543 70.9857 17.0923 70.0029 16.2402C70.0029 16.2402 70.5572 18.2624 73.3214 18.485L73.4699 17.8635Z" fill="#EB996E"/>
<path d="M73.6749 14.2575C73.6187 14.1558 73.5378 14.0699 73.4398 14.0075C73.3418 13.9451 73.2297 13.9083 73.1137 13.9003C73.0302 13.8939 72.9461 13.9041 72.8665 13.9303C72.7869 13.9566 72.7133 13.9984 72.6499 14.0534C72.5888 14.1073 72.5457 14.1787 72.5266 14.258C72.5076 14.3373 72.5134 14.4205 72.5433 14.4963C72.5915 14.5729 72.6612 14.6337 72.7436 14.6712C72.826 14.7087 72.9176 14.7213 73.0071 14.7073C73.1946 14.6746 73.3741 14.6061 73.5358 14.5056C73.5837 14.4828 73.6269 14.4514 73.6634 14.4128C73.6808 14.3946 73.6923 14.3717 73.6964 14.3468C73.7005 14.322 73.6971 14.2965 73.6865 14.2737" fill="#EB996E"/>
<path d="M72.8561 13.4459C72.9187 13.4459 72.8561 13.8587 73.1437 14.2089C73.4312 14.5591 73.8834 14.5915 73.8765 14.6495C73.8695 14.7075 73.7652 14.7098 73.582 14.6843C73.3431 14.6456 73.1256 14.5241 72.9674 14.3411C72.8146 14.165 72.7372 13.936 72.7517 13.7033C72.7541 13.5317 72.8167 13.4367 72.8561 13.4459Z" fill="#263238"/>
<path d="M70.8223 5.18307C71.5481 6.78551 73.8996 8.73349 75.7177 9.42455C75.5507 9.09525 74.5304 8.16533 74.3657 7.83603C75.0985 8.63145 76.1583 9.71211 77.2784 9.98344C77.4074 10.0262 77.546 10.0302 77.6773 9.99503C77.7497 9.95807 77.8126 9.90497 77.8613 9.83984C77.9099 9.77471 77.943 9.69927 77.9579 9.61935C78.1751 8.81165 78.3042 7.98279 78.3428 7.14728C78.3811 6.44266 78.1488 5.75004 77.6935 5.2109C77.0743 4.51519 76.0702 4.18125 75.0916 3.97254C74.2862 3.7647 73.4478 3.71742 72.6241 3.8334C71.8194 3.98645 71.0681 4.45026 70.8269 5.13437" fill="#263238"/>
<path d="M66.4881 11.2146C66.4746 10.5954 66.4979 9.97591 66.5576 9.35942C66.7408 7.94482 67.1838 2.80355 71.9285 4.12539L71.4229 5.44491C71.4229 5.44491 71.787 8.75415 69.352 10.5305C69.352 10.5305 69.3636 13.8351 67.6754 15.0271C67.6754 15.0271 66.4997 12.7869 66.4881 11.2239" fill="#263238"/>
<path d="M69.4537 10.2988C69.1731 10.1851 68.8667 10.1506 68.5678 10.1991C68.2694 10.2508 68.003 10.4173 67.8257 10.6629C67.6648 10.9214 67.6076 11.2313 67.6657 11.5302C67.7256 11.8269 67.8508 12.1065 68.0321 12.3488C68.1496 12.531 68.3085 12.6828 68.4959 12.7917C68.5914 12.8431 68.6982 12.87 68.8067 12.87C68.9151 12.87 69.0219 12.8431 69.1174 12.7917" fill="#FFBE9D"/>
<path d="M68.9825 12.031C69.0127 12.0473 68.855 12.2003 68.6022 12.0821C68.5358 12.0459 68.4773 11.9969 68.4299 11.938C68.3825 11.8791 68.3473 11.8114 68.3262 11.7388C68.2725 11.5753 68.252 11.4026 68.2659 11.231C68.2756 11.0475 68.3514 10.8736 68.4793 10.7417C68.5325 10.685 68.598 10.6413 68.6708 10.614C68.7436 10.5866 68.8217 10.5764 68.899 10.584C69.175 10.6257 69.226 10.8298 69.1935 10.8298C69.1611 10.8298 69.0799 10.7301 68.8921 10.7417C68.7757 10.7648 68.6714 10.8286 68.5979 10.9217C68.5243 11.0147 68.4864 11.131 68.4909 11.2495C68.47 11.5556 68.5373 11.8502 68.6834 11.9452C68.8295 12.0403 68.9686 12.0032 68.9825 12.031Z" fill="#EB996E"/>
<path d="M96.927 10.5214C96.8953 10.5914 96.8522 10.6557 96.7995 10.7116C96.6476 10.8727 96.4516 10.9856 96.236 11.0362C95.8938 11.122 95.5333 11.0968 95.2063 10.9644C94.7865 10.7793 94.3959 10.534 94.0468 10.2362C93.648 9.93471 93.2027 9.57758 92.6322 9.45468C92.3372 9.39892 92.0334 9.41162 91.744 9.49178C91.4353 9.5817 91.1362 9.70211 90.8512 9.85123C90.5544 10.002 90.2529 10.1689 89.9236 10.315C89.5958 10.4756 89.2397 10.5702 88.8754 10.5933C88.4911 10.606 88.1127 10.4964 87.7948 10.2802C87.4805 10.0518 87.2062 9.7728 86.9831 9.45468C86.5193 8.83782 86.1436 8.16762 85.5778 7.72932C85.3032 7.51356 84.9755 7.37578 84.6293 7.33045C84.2943 7.2927 83.9555 7.30757 83.6252 7.37452C82.9758 7.4951 82.3682 7.7015 81.7699 7.77802C81.2148 7.84505 80.6517 7.7961 80.1165 7.63425C79.34 7.40309 78.6456 6.95495 78.1152 6.34255C77.9204 6.12161 77.7579 5.87409 77.6328 5.60742C77.6467 5.62099 77.6585 5.63664 77.6676 5.6538C77.6908 5.69323 77.7209 5.73961 77.758 5.79758C78.3104 6.65394 79.1579 7.27777 80.1397 7.55076C80.6661 7.70524 81.2189 7.74867 81.763 7.67831C82.3474 7.59946 82.9503 7.39075 83.6182 7.26552C83.9596 7.1932 84.3105 7.17675 84.6571 7.21682C85.0231 7.2637 85.3699 7.40784 85.6613 7.63425C86.2549 8.09805 86.6329 8.7752 87.0921 9.38279C87.3063 9.69037 87.5705 9.96 87.8736 10.1805C88.1701 10.3832 88.5234 10.4864 88.8824 10.475C89.2322 10.4534 89.5742 10.3627 89.8888 10.2084C90.2065 10.0692 90.5057 9.90457 90.8048 9.74455C91.097 9.59172 91.4039 9.46896 91.7209 9.37815C92.0234 9.29651 92.3406 9.28462 92.6485 9.34336C93.1854 9.50359 93.6798 9.78168 94.0955 10.1573C94.436 10.4541 94.8171 10.7009 95.2272 10.8901C95.5408 11.0218 95.8875 11.0534 96.2197 10.9806C96.4293 10.9337 96.6224 10.8312 96.7786 10.6838C96.8853 10.5887 96.9224 10.5191 96.927 10.5214Z" fill="#263238"/>
<path d="M43.5168 56.5889L39.3101 65.0742L40.5647 65.1205L37.0003 71.8642H38.8741L35.9521 77.8543H52.2757L48.6812 71.8642L50.4043 71.7877L46.9605 65.0486L48.2337 64.9744L43.5168 56.5889Z" fill="#455A64"/>
<path d="M44.2266 66.4351C44.2614 66.4351 44.2266 70.0295 44.1709 74.4612C44.1153 78.8928 44.0248 82.485 43.9924 82.485C43.9599 82.485 43.9924 78.8905 44.0503 74.4589C44.1083 70.0272 44.1941 66.4351 44.2266 66.4351Z" fill="#263238"/>
<path d="M46.2275 68.6128C46.1632 68.7489 46.0779 68.8741 45.9747 68.9838C45.7457 69.2626 45.501 69.5281 45.2419 69.7793C44.9451 70.0784 44.6761 70.3451 44.4882 70.5469C44.3939 70.663 44.2883 70.7694 44.1729 70.8646C44.2364 70.7278 44.3209 70.6018 44.4233 70.4912C44.6537 70.2136 44.8983 69.9481 45.1561 69.6958C45.4553 69.3966 45.7243 69.1299 45.9121 68.9282C46.0052 68.8117 46.111 68.7059 46.2275 68.6128Z" fill="#263238"/>
<path d="M44.1858 70.9505C43.8552 70.7654 43.5444 70.5471 43.2582 70.2989C42.9454 70.0798 42.6563 69.8288 42.3955 69.5498C42.7262 69.7346 43.0371 69.953 43.3231 70.2014C43.6363 70.42 43.9255 70.6711 44.1858 70.9505Z" fill="#263238"/>
<path d="M44.0752 75.1134C43.7111 74.8559 43.3619 74.5779 43.0293 74.2809C42.6707 74.0148 42.3276 73.7283 42.002 73.4229C42.3993 73.6317 42.77 73.8879 43.1058 74.1858C43.466 74.4538 43.7916 74.7653 44.0752 75.1134Z" fill="#263238"/>
<path d="M46.4015 72.5391C46.4317 72.5623 45.954 73.1837 45.2815 73.8679L44.435 74.7537C44.328 74.8857 44.2075 75.0061 44.0756 75.1132C44.0454 75.09 44.5231 74.4685 45.1957 73.7844L46.0421 72.9008C46.1495 72.7685 46.2699 72.6473 46.4015 72.5391Z" fill="#263238"/>
</svg>
