<svg width="13" height="17" viewBox="0 0 13 17" fill="none" xmlns="http://www.w3.org/2000/svg">
<path d="M12.3971 12.4083L11.3221 11.3333V7.16658C11.3221 4.60825 9.9554 2.46659 7.57206 1.89992V1.33325C7.57206 0.641585 7.01373 0.083252 6.32206 0.083252C5.6304 0.083252 5.07206 0.641585 5.07206 1.33325V1.89992C2.6804 2.46659 1.32206 4.59992 1.32206 7.16658V11.3333L0.247064 12.4083C-0.277936 12.9333 0.0887309 13.8333 0.830398 13.8333H11.8054C12.5554 13.8333 12.9221 12.9333 12.3971 12.4083ZM9.6554 12.1666H2.98873V7.16658C2.98873 5.09992 4.24706 3.41659 6.32206 3.41659C8.39707 3.41659 9.6554 5.09992 9.6554 7.16658V12.1666ZM6.32206 16.3333C7.23873 16.3333 7.98873 15.5833 7.98873 14.6666H4.6554C4.6554 15.5833 5.39706 16.3333 6.32206 16.3333Z" fill="#78797A"/>
</svg>
