<svg width="86" height="82" viewBox="0 0 86 82" fill="none" xmlns="http://www.w3.org/2000/svg">
<path d="M48.2619 81.6039C44.9232 80.0236 43.5927 76.2666 43.1221 72.7671C43.0427 72.1861 42.8762 71.5819 43.066 71.0242C43.2557 70.4664 43.8406 70.0113 44.4022 70.1682C44.8689 70.2979 45.142 70.7666 45.4538 71.1365C45.8685 71.6355 46.4166 72.0063 47.0341 72.2055C47.4369 72.3353 47.9152 72.3759 48.2464 72.1125C48.6996 71.7504 48.6337 71.0493 48.5408 70.4722C48.351 69.4019 48.1651 68.3316 47.983 67.2613C47.8518 66.6902 47.8132 66.1017 47.8688 65.5184C47.954 64.9374 48.2658 64.3564 48.7887 64.1163C49.3115 63.8761 50.0455 64.0717 50.2566 64.6179C50.3189 64.8527 50.3654 65.0914 50.396 65.3325C50.4522 65.5707 50.6091 65.8166 50.8473 65.8457C51.0855 65.8747 51.2927 65.6714 51.4379 65.4719C51.9337 64.7883 52.2126 63.9691 52.4643 63.1576C52.7161 62.3462 52.9524 61.5193 53.3862 60.7911C53.82 60.0629 54.4823 59.4355 55.3015 59.2418C56.1207 59.0482 57.089 59.4161 57.4318 60.1927C57.7745 60.9693 57.4434 61.8775 57.0444 62.6251C56.4386 63.732 55.6761 64.7456 54.7805 65.6346C54.6019 65.7769 54.4731 65.9722 54.4126 66.1923C54.3525 66.599 54.7825 66.9205 55.1872 66.9825C55.6404 67.0522 56.1013 66.9282 56.5603 66.905C57.0193 66.8818 57.5402 66.998 57.7842 67.395C58.1193 67.945 57.73 68.648 57.3136 69.1379C56.4773 70.1141 55.4797 70.9394 54.3642 71.578C53.9652 71.8046 53.5411 72.0177 53.2487 72.374C52.9562 72.7303 52.8381 73.2842 53.1131 73.656C53.3881 74.0279 53.9439 74.0685 54.3738 73.9097C54.8038 73.7509 55.162 73.443 55.5591 73.2126C56.3027 72.7787 57.3369 72.6587 57.9624 73.259C58.1575 73.4689 58.3012 73.7213 58.3822 73.9962C58.4632 74.2711 58.4792 74.561 58.4291 74.8432C58.3261 75.4053 58.1107 75.9408 57.7958 76.4176C56.7929 78.1417 55.3508 79.569 53.6166 80.5543C51.8834 81.5032 50.2063 81.966 48.2638 81.6058" fill="#F5F5F5"/>
<path d="M48.791 79.2685C49.0478 77.2755 49.419 75.2988 49.9026 73.3483L50.2745 71.8126C50.3965 71.3071 50.5185 70.8075 50.6618 70.3272C50.9513 69.4054 51.2914 68.5003 51.6804 67.6159C52.0465 66.7677 52.4241 65.9737 52.7824 65.2358C53.1406 64.498 53.4912 63.8163 53.8359 63.2101C54.374 62.2487 54.9879 61.3317 55.6718 60.4679C55.9139 60.1619 56.1095 59.9314 56.2431 59.7765C56.307 59.7029 56.3593 59.6448 56.3961 59.6003C56.4329 59.5557 56.4503 59.5422 56.4523 59.5441C56.4382 59.5665 56.4227 59.5878 56.4058 59.608L56.2586 59.7901C56.1308 59.9489 55.941 60.1774 55.7047 60.4931C55.0358 61.3654 54.4331 62.2865 53.9017 63.2489C53.5628 63.857 53.2181 64.5387 52.8618 65.2765C52.5054 66.0144 52.1336 66.8084 51.7715 67.6566C51.3858 68.541 51.0496 69.4462 50.7644 70.3679C50.6153 70.8462 50.4952 71.3362 50.3771 71.8474L50.0053 73.3851C49.5227 75.3316 49.1497 77.3036 48.8878 79.2918" fill="#E0E0E0"/>
<path d="M50.6946 70.3191C50.6526 70.2438 50.6195 70.1638 50.5958 70.0809C50.5377 69.9279 50.4622 69.6936 50.3731 69.4205C50.1949 68.8589 49.9742 68.0746 49.734 67.2108C49.4939 66.3471 49.2634 65.5667 49.0756 65.0108C48.9826 64.732 48.9051 64.5054 48.8509 64.3524C48.8184 64.2729 48.7931 64.1905 48.7754 64.1064C48.8221 64.1787 48.8605 64.256 48.8897 64.3369C48.9574 64.486 49.0446 64.7087 49.1472 64.9837C49.3544 65.5376 49.5965 66.3142 49.8386 67.1818C50.0807 68.0494 50.284 68.8085 50.4467 69.3973C50.5222 69.6645 50.5842 69.8892 50.6404 70.0693C50.6657 70.1508 50.6838 70.2344 50.6946 70.3191Z" fill="#E0E0E0"/>
<path d="M57.8898 67.6738C57.7962 67.7129 57.6989 67.7421 57.5993 67.761C57.4056 67.8094 57.1403 67.8791 56.8072 67.9759C56.1391 68.1696 55.227 68.4562 54.2335 68.8242C53.24 69.1921 52.355 69.5659 51.7159 69.8525C51.3983 69.9939 51.1446 70.1159 50.9683 70.1992C50.8798 70.2474 50.7871 70.2876 50.6914 70.3192C50.7715 70.2575 50.8578 70.2043 50.949 70.1604C51.1194 70.0655 51.3692 69.9339 51.683 69.7731C52.3085 69.4671 53.1916 69.0817 54.187 68.7119C55.0366 68.394 55.9021 68.1206 56.7801 67.8927C57.1171 67.8036 57.3921 67.7455 57.5838 67.7087C57.6845 67.6876 57.7869 67.6759 57.8898 67.6738Z" fill="#E0E0E0"/>
<path d="M48.8587 79.1194C48.8339 79.094 48.8118 79.0661 48.7929 79.0361L48.6205 78.7901C48.4714 78.5732 48.2642 78.2576 48.0143 77.8625C47.5108 77.0724 46.8524 75.9588 46.1416 74.7194C45.4309 73.4799 44.786 72.3625 44.296 71.5646L43.7151 70.6176L43.5601 70.36C43.5397 70.3315 43.5234 70.3002 43.5117 70.2671C43.5117 70.2671 43.5369 70.2923 43.5776 70.3484C43.6182 70.4046 43.6821 70.4956 43.7499 70.5963C43.899 70.8113 44.1063 71.127 44.358 71.524C44.8596 72.3141 45.52 73.4257 46.2307 74.6651C46.9415 75.9046 47.5864 77.022 48.0744 77.8218L48.6554 78.7669C48.7173 78.8695 48.7696 78.9606 48.8103 79.0245C48.8311 79.0535 48.8474 79.0855 48.8587 79.1194Z" fill="#E0E0E0"/>
<path d="M58.1899 74.2681C58.1627 74.2919 58.132 74.3115 58.0989 74.3262L57.8297 74.4695L56.8304 74.9904C55.986 75.432 54.8279 76.0536 53.5498 76.7334C52.2716 77.4131 51.1077 78.0348 50.2575 78.457C49.8315 78.6681 49.4829 78.8443 49.2428 78.9469L48.9523 79.0747C48.9204 79.0917 48.8866 79.1047 48.8516 79.1135C48.8793 79.0902 48.9099 79.0707 48.9426 79.0554L49.2137 78.9121L50.213 78.3892C51.0554 77.9496 52.2135 77.3279 53.4917 76.6462C54.7699 75.9645 55.9357 75.3468 56.7839 74.9246C57.21 74.7135 57.5586 74.5373 57.7987 74.4346L58.0776 74.3068C58.1128 74.2882 58.1507 74.2751 58.1899 74.2681Z" fill="#E0E0E0"/>
<path d="M24.0467 40.0344C24.0467 40.0344 21.746 40.3539 23.0377 45.393C24.3294 50.432 25.4255 53.031 25.4255 53.031C25.4255 53.031 25.5979 54.1716 24.678 54.1368C23.7581 54.1019 21.8815 53.3621 21.2444 54.3479C20.5859 55.3781 21.163 56.6176 22.6 57.917C24.037 59.2165 27.1007 62.1776 27.3757 62.4468C27.6507 62.716 27.8521 63.2698 27.2208 63.3454C26.5894 63.4209 22.112 62.8961 21.9919 65.036C21.8718 67.176 26.4868 70.1351 26.9845 70.4682C27.4822 70.8013 27.5655 71.0608 27.4493 71.3513C27.3331 71.6418 25.8497 71.3223 24.5696 71.2235C23.2895 71.1248 21.7866 71.239 21.8196 72.4785C21.8525 73.7179 24.2771 76.8552 31.3458 79.1869L34.6942 80.0525L37.1672 77.6163C42.1443 72.0795 42.6885 68.154 42.1017 67.0617C41.5149 65.9695 40.1651 66.6183 39.0922 67.3387C38.0193 68.0591 36.8961 69.0816 36.656 68.888C36.4158 68.6943 36.3538 68.4271 36.6211 67.8906C36.8884 67.3542 39.4234 62.4933 38.2537 60.6961C37.084 58.8989 33.4586 61.5753 32.8776 61.8213C32.2966 62.0672 32.1921 61.4824 32.2966 61.1183C32.4012 60.7542 33.5826 56.6641 34.1906 54.8146C34.7987 52.9651 34.6825 51.6056 33.598 51.0401C32.5523 50.4959 31.2954 52.0762 30.513 52.5642C29.7306 53.0523 29.3162 51.9833 29.3162 51.9833C29.3162 51.9833 28.9754 49.1849 27.5926 44.169C26.2099 39.1532 24.0041 40.0518 24.0041 40.0518" fill="#EBEBEB"/>
<path d="M34.6925 80.8855C33.6913 77.206 32.02 70.6215 30.5578 64.9685C29.0957 59.3155 27.7672 54.2184 26.7834 50.5272C26.2915 48.6835 25.8925 47.1923 25.6214 46.1562C25.4859 45.643 25.3793 45.2422 25.3057 44.9672L25.2244 44.6573C25.207 44.5876 25.2012 44.5508 25.2012 44.5508C25.2012 44.5508 25.2147 44.5837 25.236 44.6534C25.2573 44.7231 25.2864 44.8297 25.3251 44.9613C25.4045 45.2363 25.5188 45.6333 25.6621 46.1446C25.9526 47.173 26.3631 48.6622 26.8628 50.5059C27.864 54.1854 29.2061 59.3 30.6682 64.9414C32.1304 70.5827 33.7881 77.173 34.7719 80.8642" fill="#E0E0E0"/>
<path d="M23.8281 55.4985C23.9055 55.5304 23.9794 55.57 24.0489 55.6167C24.1864 55.698 24.3839 55.8219 24.6299 55.9769C25.1121 56.2887 25.7686 56.736 26.4832 57.2415L28.3075 58.5429L28.8633 58.9302C28.9334 58.9738 28.9984 59.0251 29.057 59.0832C28.9789 59.0516 28.9042 59.012 28.8343 58.9651C28.6968 58.8837 28.4992 58.7598 28.2533 58.6029C27.7749 58.2873 27.1242 57.8283 26.4096 57.3248L24.5757 56.0369L24.0179 55.6496C23.9494 55.6062 23.8858 55.5555 23.8281 55.4985Z" fill="#E0E0E0"/>
<path d="M29.3375 58.9222C29.3123 58.9067 30.1741 57.5143 31.2605 55.812C32.3469 54.1097 33.2513 52.7424 33.2765 52.7579C33.3017 52.7734 32.4399 54.1678 31.3515 55.8701C30.2632 57.5724 29.3626 58.9338 29.3375 58.9222Z" fill="#E0E0E0"/>
<path d="M31.1934 67.691C31.247 67.6241 31.3088 67.5643 31.3773 67.5128L31.8983 67.0558C32.3379 66.6685 32.9441 66.134 33.5909 65.5181C34.2377 64.9023 34.8071 64.3271 35.2138 63.9068C35.4074 63.7132 35.5662 63.5408 35.696 63.4091C35.7546 63.3442 35.8195 63.2852 35.8896 63.2329C35.8468 63.3069 35.7947 63.3753 35.7347 63.4363C35.6301 63.5621 35.4733 63.7403 35.2757 63.9572C34.8884 64.3929 34.3229 64.9797 33.6722 65.5956C33.0215 66.2114 32.4096 66.7421 31.9564 67.1139C31.7279 67.3075 31.5419 67.447 31.4103 67.5457C31.3435 67.602 31.2708 67.6507 31.1934 67.691Z" fill="#E0E0E0"/>
<path d="M25.5283 65.6909C25.6065 65.7003 25.6832 65.7191 25.7568 65.7471L26.3707 65.9407C26.8859 66.1053 27.5966 66.3397 28.379 66.6031C29.1614 66.8664 29.8683 67.1143 30.3776 67.2983L30.9799 67.5191C31.0549 67.5425 31.127 67.5744 31.1949 67.614C31.1166 67.606 31.0398 67.5878 30.9663 67.5597L30.3524 67.3661C29.8373 67.2015 29.1265 66.9671 28.3442 66.7018C27.5618 66.4365 26.8549 66.1906 26.3456 66.0085L25.7433 65.7858C25.6677 65.764 25.5954 65.732 25.5283 65.6909Z" fill="#E0E0E0"/>
<path d="M26.1826 73.6406C26.2823 73.6555 26.3802 73.6802 26.475 73.7142L27.2613 73.9544C27.9236 74.1616 28.8358 74.454 29.8428 74.7852C30.8499 75.1163 31.7581 75.4184 32.4146 75.645L33.1893 75.9161C33.2857 75.947 33.3796 75.9852 33.4701 76.0304C33.3698 76.0157 33.2712 75.991 33.1757 75.9568L32.3895 75.7167C31.7271 75.5095 30.815 75.217 29.808 74.8859C28.8009 74.5547 27.8926 74.2507 27.2381 74.026L26.4634 73.7529C26.3666 73.724 26.2726 73.6865 26.1826 73.6406Z" fill="#E0E0E0"/>
<path d="M33.3115 75.9236C33.3797 75.8398 33.4556 75.7627 33.5381 75.6931L34.1791 75.0908C34.7194 74.5815 35.4631 73.8746 36.2629 73.0709C37.0627 72.2672 37.7696 71.5216 38.277 70.9794L38.8773 70.3364C38.948 70.2543 39.0251 70.1779 39.1078 70.1079C39.0514 70.199 38.9865 70.2846 38.9141 70.3635C38.7825 70.5243 38.5849 70.7509 38.3332 71.0297C37.8393 71.5875 37.1421 72.3428 36.3384 73.1465C35.5348 73.9502 34.7892 74.6512 34.2314 75.147C33.9525 75.3929 33.726 75.5924 33.5652 75.728C33.4862 75.8001 33.4014 75.8655 33.3115 75.9236Z" fill="#E0E0E0"/>
<path d="M14.0539 9.98393L12.1637 9.40294C12.1637 9.40294 11.6679 10.991 10.0102 10.5049C9.68927 10.4165 9.40374 10.2305 9.19314 9.97276C8.98253 9.71497 8.85727 9.39809 8.83468 9.06597C8.80987 8.7859 8.85227 8.50396 8.95838 8.24358C9.06448 7.98321 9.23122 7.75192 9.44471 7.56897C9.9308 7.13904 10.7829 6.8776 11.9856 7.49925L13.316 3.2387L11.4472 2.65771L10.6725 5.15401C10.6725 5.15401 7.83732 5.01264 6.9368 7.90013C6.07501 10.6637 8.35246 12.0793 9.41373 12.4105C10.2194 12.6623 13.0488 13.3285 14.0539 9.98393Z" fill="#F5F5F5"/>
<path d="M11.7009 1.77093L13.5977 2.36279L14.1503 0.591737L12.2535 -0.000129581L11.7009 1.77093Z" fill="#F5F5F5"/>
<path d="M19.2697 5.17343L20.0269 4.97976C20.0038 4.89377 19.9982 4.804 20.0105 4.71581C20.0228 4.62761 20.0526 4.54278 20.0983 4.46636C20.1441 4.38994 20.2047 4.32349 20.2766 4.27095C20.3485 4.21842 20.4302 4.18089 20.5169 4.16058C20.6431 4.12249 20.7779 4.12458 20.9029 4.16657C21.0278 4.20856 21.1365 4.28835 21.2141 4.39491C21.2799 4.48338 21.3239 4.58617 21.3424 4.69489C21.3609 4.8036 21.3534 4.91516 21.3206 5.02043C21.2489 5.26638 21.0185 5.53363 20.484 5.57818L20.9352 7.28433L21.6827 7.09067L21.4194 6.09138C21.7028 5.9204 21.9222 5.66092 22.0437 5.35295C22.1651 5.04497 22.1819 4.7056 22.0914 4.38716C21.8009 3.27942 20.7357 3.28523 20.3155 3.39561C19.9901 3.47114 18.9037 3.84103 19.2697 5.17343Z" fill="#EBEBEB"/>
<path d="M21.9463 7.33952L21.1836 7.54395L21.3744 8.2559L22.1371 8.05147L21.9463 7.33952Z" fill="#EBEBEB"/>
<path d="M81.7852 24.7741L82.5211 25.0394C82.5519 24.9561 82.5992 24.8798 82.66 24.815C82.7208 24.7502 82.794 24.6982 82.8752 24.6621C82.9564 24.626 83.044 24.6066 83.1329 24.6048C83.2217 24.6031 83.31 24.6192 83.3925 24.6521C83.5165 24.692 83.6251 24.7692 83.7035 24.8732C83.7818 24.9772 83.8261 25.1029 83.8302 25.2331C83.8348 25.3442 83.8129 25.4547 83.7665 25.5557C83.72 25.6567 83.6503 25.7453 83.563 25.8141C83.3693 25.9748 83.0227 26.062 82.5579 25.7947L81.9556 27.4544L82.6837 27.7178L83.0362 26.7495C83.3667 26.7699 83.6948 26.6814 83.9702 26.4974C84.2455 26.3133 84.4528 26.044 84.5603 25.7308C84.9476 24.654 84.0742 24.0556 83.6617 23.9065C83.3461 23.7826 82.2422 23.4708 81.7852 24.7741Z" fill="#EBEBEB"/>
<path d="M82.5752 28.0539L81.8359 27.7861L81.586 28.4762L82.3253 28.744L82.5752 28.0539Z" fill="#EBEBEB"/>
<path d="M3.68551 33.202L5.2348 32.6016C5.2348 32.6016 4.73128 31.2944 6.0811 30.7464C6.33944 30.637 6.62532 30.6106 6.89934 30.6706C7.17336 30.7306 7.42201 30.8741 7.61103 31.0814C7.77183 31.2537 7.88968 31.4616 7.95496 31.6881C8.02025 31.9145 8.03113 32.1532 7.98673 32.3847C7.8899 32.9231 7.46384 33.5467 6.34254 33.7617L7.69817 37.2727L9.24747 36.6801L8.45345 34.6235C8.45345 34.6235 10.3901 33.233 9.4818 30.8509C8.60064 28.5735 6.34642 28.833 5.48075 29.168C4.81262 29.4256 2.59713 30.4655 3.68551 33.202Z" fill="#F5F5F5"/>
<path d="M9.54071 37.3948L7.97754 37.9971L8.54009 39.4572L10.1033 38.855L9.54071 37.3948Z" fill="#F5F5F5"/>
<path d="M82.3916 39.1107L81.2877 39.5348C81.2877 39.5348 81.6441 40.4624 80.6874 40.8497C80.5042 40.9263 80.3019 40.9447 80.1079 40.9024C79.9139 40.8601 79.7376 40.7593 79.6029 40.6135C79.489 40.4913 79.4055 40.3439 79.3594 40.1834C79.3133 40.0229 79.3058 39.8537 79.3376 39.6897C79.4073 39.3024 79.7094 38.8686 80.4995 38.7214L79.5506 36.2251L78.4583 36.6453L79.02 38.1036C78.6225 38.4077 78.3359 38.834 78.2043 39.3168C78.0728 39.7997 78.1035 40.3124 78.2918 40.7761C78.9135 42.3893 80.5053 42.2073 81.1251 41.9691C81.5937 41.7851 83.1624 41.0492 82.3916 39.1107Z" fill="#F5F5F5"/>
<path d="M78.2418 36.1397L79.3496 35.7129L78.9514 34.6792L77.8436 35.106L78.2418 36.1397Z" fill="#F5F5F5"/>
<path d="M85.5092 81.9351C85.5092 81.9642 66.3658 81.9855 42.7566 81.9855C19.1473 81.9855 0 81.9642 0 81.9351C0 81.9061 19.1396 81.8848 42.7566 81.8848C66.3736 81.8848 85.5092 81.908 85.5092 81.9351Z" fill="#263238"/>
<path d="M12.2807 76.9054C12.4743 76.1927 11.996 75.4781 11.4731 74.9687C10.9502 74.4594 10.3247 73.9908 10.0516 73.3071C9.61007 72.1994 10.2027 70.7663 9.45127 69.8425C9.00779 69.3003 8.21377 69.1182 7.82064 68.5372C7.63887 68.217 7.51867 67.8656 7.46624 67.5012C7.04837 65.6613 6.14335 63.9676 4.846 62.5977C4.75855 64.2365 5.11375 65.8687 5.87434 67.323C6.17839 67.904 6.5541 68.4695 6.64899 69.1182C6.8136 70.1698 6.22487 71.2485 6.48438 72.2865C6.78068 73.4679 8.10726 74.2599 8.16923 75.4761C8.22346 76.5045 7.32681 77.4128 7.39459 78.4353C7.4489 78.8732 7.60764 79.2916 7.85744 79.6553C8.65145 80.9781 9.82116 81.8883 11.5912 81.8592L13.7602 81.9347L12.2807 76.9054Z" fill="#FF725E"/>
<g opacity="0.3">
<path opacity="0.3" d="M12.2807 76.9054C12.4743 76.1927 11.996 75.4781 11.4731 74.9687C10.9502 74.4594 10.3247 73.9908 10.0516 73.3071C9.61007 72.1994 10.2027 70.7663 9.45127 69.8425C9.00779 69.3003 8.21377 69.1182 7.82064 68.5372C7.63887 68.217 7.51867 67.8656 7.46624 67.5012C7.04837 65.6613 6.14335 63.9676 4.846 62.5977C4.75855 64.2365 5.11375 65.8687 5.87434 67.323C6.17839 67.904 6.5541 68.4695 6.64899 69.1182C6.8136 70.1698 6.22487 71.2485 6.48438 72.2865C6.78068 73.4679 8.10726 74.2599 8.16923 75.4761C8.22346 76.5045 7.32681 77.4128 7.39459 78.4353C7.4489 78.8732 7.60764 79.2916 7.85744 79.6553C8.65145 80.9781 9.82116 81.8883 11.5912 81.8592L13.7602 81.9347L12.2807 76.9054Z" fill="black"/>
</g>
<path d="M14.1974 81.9792C14.3961 82.0098 14.5986 82.0059 14.7959 81.9676C15.0354 81.9311 15.2709 81.8715 15.4989 81.7894C15.8137 81.6799 16.1082 81.5189 16.3703 81.313C16.528 81.1862 16.6513 81.0217 16.7286 80.8346C16.7934 80.6251 16.8273 80.4072 16.8293 80.1878C16.8337 79.9533 16.8511 79.7193 16.8816 79.4868C16.9224 79.2392 17.0119 79.0023 17.145 78.7896C17.4006 78.3403 17.8267 77.9142 17.9622 77.3042C18.0978 76.6942 18.0048 76.0551 17.9041 75.4044C17.8034 74.7537 17.7105 74.0487 17.9545 73.3671C18.1985 72.6854 18.6633 72.0753 18.9015 71.3123C19.1397 70.5493 19.0274 69.7088 19.0777 68.8896C19.0926 68.4735 19.1886 68.0643 19.3605 67.685C19.5348 67.2977 19.7788 66.9394 19.9686 66.5366C20.3559 65.7194 20.4217 64.7937 20.5263 63.8854C20.5786 63.4284 20.6289 62.9655 20.6812 62.5007C20.7142 62.0308 20.7953 61.5655 20.9233 61.1122C21.0702 60.6552 21.2435 60.207 21.4423 59.7701C21.5447 59.5441 21.6289 59.3103 21.6941 59.071C21.7306 58.8232 21.7538 58.5737 21.7638 58.3234C21.7869 57.8224 21.7675 57.3203 21.7057 56.8226C21.6476 56.3229 21.5566 55.8271 21.5024 55.3256C21.5024 55.2946 21.5024 55.2655 21.5024 55.2384L21.4907 55.1396L21.4036 55.1823C20.9457 55.4172 20.5481 55.7545 20.2416 56.168C19.941 56.5729 19.6992 57.0182 19.5231 57.4907C19.161 58.4222 19.0312 59.3983 18.8492 60.3298C18.6672 61.2613 18.4348 62.1773 17.9584 62.9519C17.7201 63.3393 17.4316 63.6917 17.1837 64.0674C16.9145 64.4341 16.7306 64.8562 16.6453 65.303C16.5156 66.221 17.021 67.0266 16.9165 67.84C16.8693 68.2384 16.7372 68.6221 16.5291 68.9651C16.3355 69.3118 16.1011 69.6333 15.8804 69.9547C15.6566 70.2701 15.4621 70.6052 15.2994 70.956C15.1462 71.2993 15.0557 71.6672 15.0321 72.0424C14.9798 72.7745 15.0825 73.4678 15.0321 74.1223C14.9717 74.7462 14.7894 75.3522 14.4957 75.906C14.2342 76.4385 13.9418 76.9207 13.6978 77.3894C13.5758 77.6218 13.4615 77.8503 13.3686 78.0808C13.2806 78.302 13.2157 78.5318 13.1749 78.7663C13.1101 79.1759 13.1049 79.5927 13.1594 80.0038C13.2163 80.5771 13.4308 81.1234 13.7791 81.5822C13.8324 81.6515 13.8913 81.7163 13.9554 81.7758C13.9981 81.8207 14.0455 81.861 14.0967 81.8959C14.1781 81.9559 14.2207 81.9831 14.2207 81.9831C14.0659 81.8607 13.9249 81.7217 13.8004 81.5686C13.4679 81.1082 13.2671 80.5659 13.2195 80C13.1701 79.5941 13.1793 79.1832 13.2466 78.7799C13.2873 78.551 13.3523 78.327 13.4402 78.1118C13.5384 77.8788 13.6489 77.6512 13.7714 77.4301C14.0173 76.9653 14.3117 76.485 14.579 75.9486C14.8815 75.3861 15.0697 74.7694 15.1328 74.134C15.1909 73.4658 15.0902 72.7686 15.1445 72.056C15.1694 71.6928 15.2579 71.3369 15.4059 71.0044C15.5696 70.6609 15.7641 70.3329 15.9869 70.0245C16.2077 69.703 16.442 69.3815 16.6434 69.0271C16.8644 68.671 17.0058 68.2713 17.0578 67.8555C17.1624 66.9898 16.6608 66.1803 16.7906 65.3262C16.8755 64.899 17.0533 64.4957 17.3115 64.1449C17.5575 63.775 17.848 63.4225 18.0862 63.0255C18.58 62.2296 18.8182 61.2961 18.9983 60.3608C19.1784 59.4254 19.312 58.4571 19.6684 57.543C19.8398 57.0836 20.0751 56.6507 20.3675 56.2571C20.6623 55.8603 21.0447 55.5369 21.4849 55.312L21.3862 55.2558C21.3862 55.2849 21.3862 55.3139 21.3958 55.3449C21.4501 55.8523 21.5411 56.3481 21.5895 56.8439C21.6507 57.3339 21.6694 57.8283 21.6457 58.3215C21.6359 58.5639 21.6139 58.8056 21.5798 59.0458C21.5172 59.2774 21.4356 59.5035 21.3358 59.7217C21.136 60.1633 20.9614 60.6159 20.8129 61.0773C20.6838 61.5377 20.6021 62.0101 20.5689 62.4872C20.5186 62.9539 20.4663 63.4167 20.4159 63.8738C20.3113 64.7859 20.2436 65.6961 19.8737 66.4843C19.68 66.8717 19.4476 67.2415 19.2675 67.6366C19.0903 68.0301 18.9916 68.4544 18.977 68.8857C18.9286 69.7224 19.037 70.5415 18.8105 71.2813C18.5839 72.0211 18.1133 72.637 17.8751 73.3361C17.6369 74.0352 17.724 74.775 17.8286 75.4237C17.9332 76.0725 18.0378 76.7116 17.8983 77.2868C17.7589 77.8619 17.3599 78.2919 17.1004 78.7528C16.9636 78.9747 16.8721 79.2215 16.8312 79.479C16.802 79.7142 16.7865 79.9508 16.7848 80.1878C16.7851 80.4017 16.7537 80.6144 16.6918 80.8192C16.6201 80.9966 16.5049 81.1531 16.3568 81.2743C16.1017 81.4799 15.8144 81.6422 15.5066 81.7545C15.2816 81.8413 15.0488 81.9061 14.8114 81.9482C14.6662 81.9745 14.5192 81.9888 14.3717 81.9908C14.2497 81.9792 14.1974 81.9792 14.1974 81.9792Z" fill="#263238"/>
<path d="M21.0497 56.4351C21.0394 56.4558 21.0322 56.478 21.0284 56.5009L20.9819 56.6946C20.9393 56.8669 20.887 57.1245 20.8057 57.446C20.7244 57.7674 20.5249 58.1315 20.3564 58.5789C20.1591 59.0825 19.9871 59.5957 19.8413 60.1166C19.6747 60.6975 19.5295 61.3366 19.3745 62.0261C19.2429 62.7604 19.0095 63.4728 18.6812 64.1428C18.5031 64.4952 18.2939 64.8516 18.1448 65.2428C17.9884 65.6423 17.8836 66.0601 17.833 66.4861C17.7228 67.3684 17.5664 68.2443 17.3643 69.1102C16.9305 70.8861 16.5161 72.5787 16.1385 74.1202C15.7608 75.6618 15.4045 77.0406 15.1101 78.2065C14.8158 79.3723 14.593 80.3019 14.4304 80.9661C14.3548 81.2838 14.2948 81.5336 14.2522 81.7176C14.2348 81.797 14.2193 81.8609 14.2077 81.9112C14.2055 81.9338 14.2055 81.9565 14.2077 81.979C14.2189 81.9589 14.2274 81.9374 14.2328 81.9151C14.2464 81.8628 14.2658 81.8008 14.289 81.7214C14.3374 81.5413 14.4052 81.2915 14.4923 80.9758C14.6666 80.3174 14.9126 79.382 15.2166 78.2297C15.5207 77.0774 15.8751 75.6831 16.2721 74.1512C16.6691 72.6193 17.0719 70.9151 17.5096 69.1373C17.7104 68.2691 17.8629 67.3905 17.9666 66.5055C18.0161 66.0897 18.1176 65.6817 18.2687 65.2912C18.4217 64.9039 18.6173 64.5572 18.7955 64.2009C19.1828 63.494 19.3358 62.7349 19.4888 62.0512C19.6418 61.3676 19.7774 60.7208 19.9362 60.1437C20.095 59.5666 20.2615 59.0514 20.4281 58.606C20.5946 58.1606 20.7786 57.7926 20.858 57.4595C20.9374 57.1264 20.9742 56.8785 21.0091 56.7004C21.022 56.6203 21.0336 56.5558 21.0439 56.5067C21.0497 56.4583 21.0536 56.4351 21.0497 56.4351Z" fill="#263238"/>
<path d="M14.5809 81.989C15.9965 81.1465 16.4032 78.5902 15.8126 77.0525C15.2219 75.5149 14.1878 74.1089 14.0289 72.4686C13.905 71.2078 14.3194 69.9142 14.0289 68.6825C13.6319 67.0189 12.0091 65.7311 12.0284 64.0211C12.0381 63.0624 12.5842 62.16 12.5397 61.2013C12.4874 60.0278 11.5849 59.0943 11.0272 58.0602C10.1712 56.4741 10.1151 54.6014 9.82262 52.8313C9.53019 51.0612 8.85432 49.1517 7.27791 48.2783C7.04552 49.7869 6.64851 50.8211 6.77246 52.8642C6.81893 53.5982 7.67105 54.9945 7.78724 56.6116C7.85696 57.5799 7.90344 58.5366 7.96347 59.4971C8.02351 60.4577 8.08161 61.3873 8.41664 62.2626C8.67421 62.9346 9.08671 63.5447 9.27843 64.238C9.63671 65.5413 9.16417 66.9492 9.45467 68.2739C9.70062 69.3932 10.4753 70.3557 10.6341 71.4906C10.8548 73.0844 9.82456 74.7422 10.3513 76.2624C10.6147 77.0177 11.2344 77.618 11.4106 78.4023C11.5481 79.0066 11.399 79.6476 11.523 80.2538C11.7166 81.2337 13.5874 81.9967 14.5848 81.9328" fill="#FF725E"/>
<path d="M7.66604 49.7676C7.6634 49.7959 7.6634 49.8244 7.66604 49.8528C7.66604 49.9167 7.68541 49.998 7.69703 50.1007C7.72995 50.3195 7.76675 50.6391 7.84034 51.0535C7.91393 51.4679 8.13471 51.9366 8.30513 52.5021C8.47555 53.0676 8.66534 53.7144 8.82414 54.4387C8.98294 55.163 9.12238 55.9706 9.26375 56.8362C9.40512 57.7019 9.56005 58.645 9.98998 59.5475C10.1836 59.9987 10.4122 60.4519 10.571 60.936C10.7337 61.4316 10.8339 61.9455 10.8692 62.466C10.9484 63.5701 11.0874 64.6691 11.2856 65.7582C11.7194 67.993 12.1319 70.1214 12.5076 72.0599C12.8833 73.9985 13.2609 75.7279 13.563 77.192C13.8651 78.656 14.113 79.8258 14.2854 80.6508L14.4791 81.59C14.5023 81.6907 14.5197 81.7701 14.5352 81.8321C14.5405 81.8605 14.5482 81.8884 14.5585 81.9154C14.5619 81.8871 14.5619 81.8585 14.5585 81.8302C14.5468 81.7663 14.5333 81.6868 14.5158 81.5842C14.4732 81.3596 14.4132 81.042 14.3377 80.6391C14.175 79.8122 13.9504 78.6309 13.6579 77.1726C13.3655 75.7143 13.0188 73.9656 12.6335 72.0348C12.2481 70.104 11.8588 67.9679 11.4231 65.735C11.2247 64.6458 11.0851 63.5468 11.0048 62.4427C10.9679 61.9116 10.8645 61.3872 10.6968 60.8818C10.5245 60.3899 10.2979 59.9348 10.0984 59.4855C9.67238 58.5966 9.51745 57.669 9.37027 56.8072C9.22308 55.9454 9.08171 55.1359 8.91322 54.4077C8.74474 53.6795 8.56076 53.0288 8.37097 52.4711C8.18118 51.9133 7.97009 51.4408 7.88488 51.0361C7.79967 50.6313 7.759 50.306 7.71833 50.091C7.69897 49.9903 7.68347 49.9089 7.67185 49.845C7.67145 49.8191 7.66951 49.7933 7.66604 49.7676Z" fill="#263238"/>
<path d="M75.9619 9.31183H75.1873C75.1878 9.39969 75.1707 9.48677 75.137 9.5679C75.1033 9.64903 75.0536 9.72256 74.9909 9.78414C74.9283 9.84572 74.8539 9.8941 74.7722 9.92641C74.6905 9.95872 74.6031 9.97429 74.5153 9.97222C74.3856 9.97687 74.2577 9.94093 74.1493 9.86942C74.041 9.79791 73.9577 9.69438 73.9111 9.57327C73.8703 9.47243 73.8539 9.36335 73.8633 9.25497C73.8727 9.14659 73.9077 9.04198 73.9653 8.94969C74.097 8.73278 74.3836 8.53719 74.9026 8.62821V6.88525H74.1415V7.90391C73.8292 7.99585 73.5557 8.18773 73.3629 8.45011C73.1702 8.71248 73.0688 9.03085 73.0744 9.35637C73.0744 10.4835 74.0854 10.7449 74.5192 10.7449C74.8503 10.7527 75.9774 10.6733 75.9619 9.31183Z" fill="#FF725E"/>
<path d="M74.1355 6.5332H74.9082V5.81085H74.1355V6.5332Z" fill="#FF725E"/>
<path d="M80.1859 8.2819C80.1885 8.24903 80.1885 8.21601 80.1859 8.18314C80.1859 8.11342 80.1859 8.01852 80.1859 7.89652C80.1859 7.83455 80.1859 7.76289 80.1762 7.68543C80.1665 7.60796 80.1549 7.52275 80.1413 7.43367C80.1278 7.34458 80.1142 7.24001 80.0987 7.13737L80.0174 6.80814C79.8735 6.24117 79.638 5.7015 79.3202 5.21043C78.8587 4.4832 78.2366 3.87146 77.5017 3.42226C76.7668 2.97306 75.9386 2.69835 75.081 2.61924C74.8234 2.5965 74.5646 2.59132 74.3063 2.60375C74.1766 2.60375 74.0429 2.60375 73.919 2.62893L73.5201 2.68896C72.9727 2.7907 72.443 2.9714 71.9475 3.22541C71.4303 3.4991 70.9549 3.84539 70.5357 4.25375C70.1066 4.68868 69.7479 5.18786 69.4725 5.73332C69.1763 6.29566 68.9822 6.90612 68.8993 7.53631C68.8751 7.69597 68.8615 7.85706 68.8586 8.01852C68.8457 8.18022 68.8425 8.34254 68.8489 8.50461C68.8911 9.5435 69.2158 10.5512 69.7882 11.4192V11.3592C69.519 12.0312 69.2537 12.6916 68.9942 13.3345L68.9477 13.4527L69.0697 13.4178L71.1806 12.8368L71.1303 12.8252C71.8412 13.3634 72.6694 13.7257 73.5472 13.8826C73.9543 13.9585 74.3693 13.9839 74.7827 13.9581C74.9821 13.9551 75.1809 13.9364 75.3773 13.902L75.6658 13.8574C75.7607 13.84 75.8595 13.8109 75.9447 13.7896C77.2455 13.46 78.3865 12.6781 79.1633 11.5838C79.4531 11.1807 79.6857 10.7395 79.8547 10.2727C79.8915 10.1701 79.9264 10.0791 79.9593 9.97838C79.9922 9.87767 80.0096 9.78472 80.031 9.69757C80.0523 9.61042 80.0755 9.52134 80.0949 9.44C80.1142 9.35866 80.12 9.27926 80.1317 9.20373C80.1491 9.05461 80.1762 8.92292 80.182 8.81641C80.1878 8.7099 80.182 8.60726 80.182 8.52592C80.182 8.44458 80.182 8.39423 80.182 8.34969C80.182 8.30514 80.182 8.28965 80.182 8.28965C80.179 8.30955 80.179 8.32978 80.182 8.34969C80.182 8.39423 80.182 8.45233 80.1684 8.52592C80.1549 8.59951 80.1568 8.70215 80.1491 8.81447C80.1413 8.9268 80.1123 9.05849 80.089 9.2018C79.9043 10.2736 79.4123 11.2688 78.6729 12.0664C77.9334 12.8639 76.9782 13.4296 75.9234 13.6947C75.8324 13.716 75.7414 13.7432 75.6484 13.7606L75.3637 13.8032C75.1716 13.8353 74.9774 13.8527 74.7827 13.8555C74.3769 13.8769 73.97 13.8502 73.5704 13.7761C72.7131 13.6183 71.9047 13.2622 71.2097 12.7361L71.1864 12.7168H71.1574L69.0445 13.2977L69.1181 13.381L69.9141 11.4076L69.9257 11.3766L69.9083 11.3476C69.5269 10.7706 69.2563 10.1277 69.1104 9.45162C69.0435 9.13798 69.0033 8.81923 68.9903 8.49881C68.9838 8.3406 68.9871 8.18215 69 8.02434C69.0012 7.86672 69.0141 7.70942 69.0387 7.55374C69.1131 6.93832 69.296 6.34098 69.579 5.78948C69.8482 5.25642 70.1976 4.76786 70.6151 4.34089C71.0253 3.94 71.491 3.6002 71.9979 3.33192C72.4822 3.07997 73.001 2.90053 73.5375 2.79935L73.9248 2.73932C74.0546 2.71995 74.1843 2.72189 74.3121 2.7122C74.5646 2.70019 74.8175 2.70472 75.0693 2.72576C75.9129 2.79961 76.7286 3.06471 77.4545 3.50094C78.1803 3.93718 78.7972 4.53306 79.2582 5.24336C79.5778 5.72585 79.8172 6.2569 79.967 6.81589L80.0542 7.14124C80.0716 7.24388 80.0871 7.3349 80.1026 7.43173C80.1181 7.52856 80.1297 7.60603 80.1433 7.68349C80.1568 7.76096 80.153 7.83067 80.1588 7.89265C80.1588 8.01272 80.1743 8.10761 80.1801 8.17733C80.1764 8.21227 80.1783 8.24758 80.1859 8.2819Z" fill="#263238"/>
<path d="M22.4341 31.1205H33.618C33.618 31.1205 33.618 21.7299 43.3766 21.5633C48.4448 21.4742 51.0727 24.7955 52.1418 27.3383C53.3812 30.2916 53.0055 33.6575 51.3439 36.3978C49.4479 39.5254 45.3617 42.6685 37.8244 41.34L37.7527 66.2584H48.8127V51.486C48.8127 51.486 64.3231 47.4772 64.3231 30.3769C64.3231 14.0221 51.0979 10.4898 43.9886 10.2612C40.034 10.1354 38.601 9.96494 33.7091 10.6602C27.4751 11.551 22.3024 18.7901 22.4341 31.1205Z" fill="#FF725E"/>
<path d="M48.9463 71.4526H37.7217V81.9355H48.9463V71.4526Z" fill="#FF725E"/>
<path opacity="0.1" d="M48.9463 71.4526H37.7217V81.9355H48.9463V71.4526Z" fill="black"/>
<path opacity="0.1" d="M22.4341 31.1205H33.618C33.618 31.1205 33.618 21.7299 43.3766 21.5633C48.4448 21.4742 51.0727 24.7955 52.1418 27.3383C53.3812 30.2916 53.0055 33.6575 51.3439 36.3978C49.4479 39.5254 45.3617 42.6685 37.8244 41.34L37.7527 66.2584H48.8127V51.486C48.8127 51.486 64.3231 47.4772 64.3231 30.3769C64.3231 14.0221 51.0979 10.4898 43.9886 10.2612C40.034 10.1354 38.601 9.96494 33.7091 10.6602C27.4751 11.551 22.3024 18.7901 22.4341 31.1205Z" fill="black"/>
<path d="M17.7999 31.1207H28.9858C28.9858 31.1207 28.9858 21.73 38.7444 21.5635C43.8125 21.4744 46.4405 24.7957 47.5075 27.3385C48.7489 30.2918 48.3732 33.6576 46.7116 36.3979C44.8156 39.5256 40.6577 42.3685 33.1204 41.0458V66.2586H44.1804V51.4861C44.1804 51.4861 59.6908 47.4773 59.6908 30.377C59.6908 14.0223 45.0229 10.2246 38.7463 10.2246C33.9454 10.2304 17.5888 11.3905 17.7999 31.1207Z" fill="#FF725E"/>
<path opacity="0.3" d="M17.7999 31.1207H28.9858C28.9858 31.1207 28.9858 21.73 38.7444 21.5635C43.8125 21.4744 46.4405 24.7957 47.5075 27.3385C48.7489 30.2918 48.3732 33.6576 46.7116 36.3979C44.8156 39.5256 40.6577 42.3685 33.1204 41.0458V66.2586H44.1804V51.4861C44.1804 51.4861 59.6908 47.4773 59.6908 30.377C59.6908 14.0223 45.0229 10.2246 38.7463 10.2246C33.9454 10.2304 17.5888 11.3905 17.7999 31.1207Z" fill="black"/>
<path d="M44.3145 71.4526H33.0898V81.9355H44.3145V71.4526Z" fill="#FF725E"/>
<path opacity="0.3" d="M44.3145 71.4526H33.0898V81.9355H44.3145V71.4526Z" fill="black"/>
<path d="M40.0069 21.6139C39.9515 21.6187 39.8958 21.6187 39.8404 21.6139C39.73 21.6139 39.5712 21.5771 39.364 21.5751C38.7781 21.5464 38.1908 21.571 37.6094 21.6487C36.7472 21.7579 35.8988 21.9571 35.0782 22.2433C34.5945 22.4124 34.1234 22.6156 33.6684 22.8514C33.1766 23.0971 32.7135 23.3965 32.2876 23.7441C31.8646 24.0949 31.4855 24.4954 31.1585 24.9371C30.8486 25.3454 30.5659 25.7737 30.3122 26.2191C29.8887 26.9778 29.5528 27.7821 29.311 28.6167C29.1471 29.1799 29.0343 29.7568 28.974 30.3403C28.9508 30.5455 28.945 30.7082 28.9392 30.8167C28.9393 30.8725 28.9341 30.9283 28.9237 30.9832C28.9187 30.9278 28.9187 30.8721 28.9237 30.8167C28.9237 30.7063 28.9237 30.5436 28.9411 30.3364C28.9856 29.7466 29.0888 29.1627 29.249 28.5934C29.4819 27.7492 29.8134 26.9354 30.2367 26.1688C30.4909 25.7184 30.7749 25.2856 31.0869 24.8732C31.4166 24.4243 31.8003 24.0178 32.2295 23.6628C32.6606 23.3104 33.1295 23.0071 33.6277 22.7584C34.0855 22.5183 34.5599 22.3112 35.0472 22.1387C35.8753 21.8537 36.7317 21.6589 37.6016 21.5577C38.1869 21.4858 38.7779 21.4722 39.3659 21.517C39.5257 21.5273 39.6847 21.5467 39.8423 21.5751C39.898 21.5842 39.953 21.5971 40.0069 21.6139Z" fill="#263238"/>
<path d="M56.8594 19.6211C56.8594 19.6211 56.8459 19.6075 56.8226 19.5785C56.7994 19.5494 56.7646 19.4991 56.7258 19.4429L56.3559 18.92C56.2765 18.8077 56.1913 18.678 56.0906 18.5443L55.742 18.1202L55.3431 17.6303C55.1978 17.4598 55.0274 17.2952 54.857 17.1151C54.6866 16.935 54.5123 16.7433 54.3147 16.5593C54.1172 16.3753 53.9061 16.1875 53.6892 15.9938C53.5808 15.897 53.4742 15.8002 53.358 15.6975L52.9978 15.4128C52.7519 15.2192 52.5079 15.0255 52.2426 14.8318C51.0861 14.0045 49.8594 13.28 48.5765 12.6667L47.556 12.2058L46.5431 11.8185C46.2119 11.681 45.875 11.5841 45.5496 11.4757C45.2243 11.3672 44.9067 11.2569 44.5813 11.1813L43.6556 10.9393C43.3554 10.8599 43.0572 10.8114 42.7725 10.7456C42.4878 10.6797 42.2128 10.6216 41.9436 10.5887L41.169 10.4764C40.679 10.3931 40.2297 10.3757 39.8385 10.337C39.6449 10.3215 39.4512 10.3002 39.2905 10.2924L38.8296 10.2808L38.1905 10.2595H38.0239H37.9678C37.9864 10.2566 38.0053 10.2566 38.0239 10.2595H38.1905H38.8296H39.2924C39.4609 10.2595 39.6449 10.2827 39.8424 10.2963C40.2297 10.3292 40.6868 10.3428 41.1767 10.4222L41.9514 10.5268C42.2206 10.5577 42.4956 10.6275 42.7822 10.6797C43.0688 10.732 43.3632 10.7863 43.6711 10.8734L44.6007 11.1135C44.9222 11.1871 45.2398 11.3072 45.569 11.406C45.8982 11.5047 46.2332 11.5996 46.5644 11.7468L47.5831 12.1341L48.6095 12.597C49.8991 13.2117 51.1306 13.9415 52.289 14.7776C52.5563 14.9713 52.8003 15.1785 53.0463 15.3702L53.4065 15.6317C53.5227 15.7285 53.6292 15.8253 53.7376 15.9299L54.3612 16.5109C54.5549 16.7046 54.7292 16.8982 54.9015 17.0744C55.0739 17.2507 55.2385 17.423 55.3837 17.5954L55.7711 18.0892L56.1158 18.5192C56.2145 18.6547 56.2978 18.7864 56.3753 18.9065C56.5263 19.1331 56.6445 19.3112 56.7278 19.4391L56.8188 19.5804C56.834 19.5922 56.8477 19.6058 56.8594 19.6211Z" fill="#263238"/>
<path d="M55.6932 43.6348C55.6702 43.6767 55.6422 43.7157 55.6099 43.751L55.3427 44.0666C55.2323 44.208 55.0929 44.3765 54.9205 44.5643C54.7481 44.7522 54.5642 44.973 54.3395 45.2015C54.1149 45.43 53.8747 45.6856 53.6017 45.9432C53.3286 46.2008 53.0323 46.4719 52.7166 46.7546C51.3321 47.9631 49.8143 49.0098 48.1927 49.8745C47.817 50.0682 47.4626 50.2619 47.1198 50.411C46.777 50.5601 46.4575 50.7131 46.1631 50.837C45.8688 50.961 45.5976 51.0636 45.3614 51.1546C45.1251 51.2457 44.9179 51.3192 44.7475 51.3735L44.3601 51.4994C44.3152 51.5172 44.2684 51.5302 44.2207 51.5381C44.2625 51.5142 44.3066 51.4947 44.3524 51.48L44.7397 51.3367C44.9082 51.2766 45.1115 51.1992 45.3459 51.1023C45.5802 51.0055 45.8513 50.9087 46.1418 50.7712C46.4323 50.6337 46.7538 50.5039 47.0888 50.3355C47.4239 50.167 47.7821 49.9888 48.1559 49.7932C48.8938 49.3865 49.6897 48.9101 50.4934 48.3601C51.2971 47.8101 52.0194 47.2311 52.6624 46.6849C52.9781 46.4061 53.2802 46.1446 53.5494 45.8812C53.8186 45.6179 54.0703 45.3797 54.293 45.1511C54.5157 44.9226 54.7113 44.7115 54.8856 44.5256C55.0599 44.3397 55.2032 44.177 55.3194 44.0415L55.5906 43.7335C55.622 43.6979 55.6564 43.6649 55.6932 43.6348Z" fill="#263238"/>
<path d="M43.9849 65.3791C43.9559 65.3791 43.9326 62.2689 43.9326 58.4325C43.9326 54.596 43.9559 51.4839 43.9849 51.4839C44.014 51.4839 44.0353 54.5941 44.0353 58.4325C44.0353 62.2708 44.012 65.3791 43.9849 65.3791Z" fill="#263238"/>
<path d="M44.4107 81.2245C44.3817 81.2245 44.3604 79.0419 44.3604 76.35C44.3604 73.6581 44.3817 71.4736 44.4107 71.4736C44.4397 71.4736 44.4611 73.6562 44.4611 76.35C44.4611 79.0439 44.4378 81.2245 44.4107 81.2245Z" fill="#263238"/>
<path d="M55.42 29.635C55.2264 30.0223 55.9487 30.3399 56.3651 30.4658C56.7899 30.5701 57.2295 30.6002 57.6646 30.5549C58.2455 30.5239 58.8401 30.4697 59.3417 30.1831C59.7809 29.9109 60.132 29.5174 60.3526 29.0501C60.57 28.5843 60.7419 28.0985 60.8658 27.5996C60.8658 27.5996 56.2896 27.8978 55.42 29.635Z" fill="#FF725E"/>
<g opacity="0.4">
<path opacity="0.4" d="M55.42 29.635C55.2264 30.0223 55.9487 30.3399 56.3651 30.4658C56.7899 30.5701 57.2295 30.6002 57.6646 30.5549C58.2455 30.5239 58.8401 30.4697 59.3417 30.1831C59.7809 29.9109 60.132 29.5174 60.3526 29.0501C60.57 28.5843 60.7419 28.0985 60.8658 27.5996C60.8658 27.5996 56.2896 27.8978 55.42 29.635Z" fill="black"/>
</g>
<path d="M68.3451 28.3954C69.0995 28.9305 70.0037 29.2138 70.9286 29.2049C71.3719 29.2296 71.8091 29.0919 72.1583 28.8176C72.3074 28.6801 72.4197 28.5058 72.5727 28.3741C72.6773 28.285 72.7993 28.2172 72.8981 28.1223C72.9502 28.0774 72.9904 28.0203 73.0151 27.9561C73.0398 27.8919 73.0481 27.8226 73.0395 27.7544C73.0012 27.5862 72.907 27.4359 72.7722 27.3283C72.2474 27.0301 71.6199 27.0417 71.0157 27.0552C70.411 27.0814 69.8137 27.1983 69.2437 27.4019C68.775 27.5607 68.2851 27.7892 68.0469 28.2153" fill="#FF725E"/>
<g opacity="0.4">
<path opacity="0.4" d="M73.0395 27.7546C72.971 27.5912 72.8505 27.4551 72.6967 27.3673C72.1719 27.069 71.6199 27.0419 71.0157 27.0555C70.411 27.0816 69.8137 27.1985 69.2437 27.4021C68.775 27.5609 68.2851 27.7894 68.0469 28.2155L68.3451 28.3956C69.0995 28.9307 70.0037 29.214 70.9286 29.2051C71.3719 29.2298 71.8091 29.0921 72.1583 28.8178C72.3074 28.6803 72.4197 28.506 72.5727 28.3743C72.6773 28.2852 72.7993 28.2174 72.8981 28.1225C72.9502 28.0777 72.9904 28.0206 73.0151 27.9563C73.0398 27.8921 73.0481 27.8228 73.0395 27.7546Z" fill="black"/>
</g>
<path d="M59.4094 35.3458L69.0635 35.4736C69.0831 35.4735 69.1025 35.4689 69.12 35.46C69.1376 35.4511 69.1528 35.4383 69.1644 35.4225C69.1761 35.4067 69.1839 35.3883 69.1872 35.369C69.1905 35.3496 69.1893 35.3297 69.1835 35.3109L68.0506 31.7785C68.0506 31.7785 68.2172 30.0123 68.4476 27.8898C68.7982 24.6653 69.2649 20.612 69.2707 20.6236C68.6103 18.7722 64.7138 18.4585 64.7138 18.4585L60.2732 18.7219L60.1182 18.4604L58.8401 19.055C58.5613 19.1847 58.2932 19.3362 58.0383 19.5081C57.194 20.0717 55.1605 21.3673 54.7887 22.8101C53.9308 26.1507 55.3832 29.8787 55.3832 29.8787L56.3167 29.1486C56.5518 28.9674 56.799 28.8024 57.0565 28.6548L58.9272 33.6687C58.8159 33.7389 58.7216 33.833 58.6513 33.9442C58.5809 34.0554 58.5363 34.181 58.5205 34.3116C58.505 34.7183 58.7142 35.2063 59.4094 35.3458Z" fill="#FF725E"/>
<g opacity="0.3">
<path opacity="0.3" d="M63.5518 29.4354C63.8578 27.7892 63.6971 26.0966 63.5325 24.4312C62.998 25.7868 63.0173 27.3361 62.4499 28.6801C62.3803 28.822 62.3296 28.9724 62.2988 29.1274C62.2841 29.2053 62.2879 29.2856 62.3101 29.3616C62.3324 29.4377 62.3723 29.5075 62.4267 29.5651C62.5816 29.7065 62.814 29.629 63.0193 29.6058C63.203 29.5707 63.3819 29.5135 63.5518 29.4354Z" fill="black"/>
</g>
<g opacity="0.4">
<path opacity="0.4" d="M59.9902 33.2466C60.7648 33.5158 61.5898 33.0142 62.409 32.9252C62.9513 32.8671 63.4935 32.991 64.0319 33.0781C65.1205 33.2543 66.2281 33.2816 67.3241 33.1595C67.4923 33.1502 67.6569 33.1074 67.8083 33.0336C67.8865 32.9803 67.9505 32.9086 67.9947 32.8249C68.0389 32.7412 68.062 32.648 68.062 32.5533C66.2377 32.3597 64.4153 32.2551 62.591 32.0672C62.137 31.9897 61.6719 32.0049 61.2238 32.1118C60.6738 32.2822 60.2555 32.7141 59.8682 33.1421" fill="black"/>
</g>
<path d="M72.7608 27.1193C71.9726 25.3434 69.1936 20.4321 69.1936 20.4321L67.042 23.1298L67.5436 28.4265C67.5436 28.4265 68.6804 27.158 71.8584 27.1328C72.0893 27.142 72.3153 27.2028 72.5197 27.3107C72.7241 27.4187 72.9018 27.5709 73.0397 27.7564L72.7608 27.1193Z" fill="#FF725E"/>
<path d="M59.8413 26.1802C59.6878 25.8037 59.5661 25.415 59.4772 25.0182C59.357 24.6317 59.2689 24.236 59.2139 23.835C59.3651 24.2121 59.4862 24.6006 59.576 24.9969C59.6963 25.3835 59.7851 25.7792 59.8413 26.1802Z" fill="#263238"/>
<path d="M66.8795 22.7715C66.9496 22.821 67.0145 22.8774 67.0732 22.94C67.2443 23.1052 67.4047 23.2811 67.5535 23.4667C68.0542 24.0788 68.4062 24.7988 68.5818 25.5699C68.6729 25.9962 68.6932 26.4345 68.6418 26.8674C68.5934 27.2644 68.5179 27.613 68.4675 27.9074C68.4172 28.2017 68.3862 28.4419 68.3707 28.6084C68.3703 28.695 68.3612 28.7813 68.3436 28.866C68.3299 28.7796 68.326 28.6919 68.332 28.6046C68.3405 28.3672 68.3625 28.1306 68.3978 27.8958C68.4385 27.5995 68.5063 27.247 68.5508 26.8577C68.5956 26.4346 68.5727 26.0071 68.483 25.5912C68.3096 24.8345 67.9732 24.1247 67.4973 23.5113C67.1429 23.0349 66.864 22.787 66.8795 22.7715Z" fill="#263238"/>
<path d="M64.9071 34.9198C64.8398 34.9498 64.7688 34.9707 64.696 34.9818C64.6133 35.0036 64.5291 35.0198 64.4442 35.0302C64.3455 35.0438 64.2331 35.0651 64.1073 35.0709C63.8122 35.0979 63.5153 35.0979 63.2203 35.0709C62.8593 35.0338 62.5026 34.9624 62.1551 34.8579C61.8094 34.7467 61.4748 34.6034 61.1558 34.4299C60.8972 34.2855 60.6517 34.119 60.4219 33.9321C60.3212 33.8547 60.2398 33.7733 60.1662 33.7056C60.1028 33.6484 60.0426 33.5876 59.9861 33.5235C59.9323 33.4737 59.886 33.4163 59.8486 33.3531C59.8622 33.3395 60.0694 33.5719 60.4664 33.876C60.6983 34.0525 60.9438 34.2104 61.2004 34.3485C61.5158 34.5142 61.8449 34.6522 62.1842 34.761C62.5257 34.8639 62.8757 34.9365 63.23 34.9779C63.5193 35.0091 63.8107 35.0181 64.1014 35.005C64.5992 34.9779 64.9032 34.9043 64.9071 34.9198Z" fill="#263238"/>
<path d="M67.8876 33.8198C67.9331 33.9074 67.9589 34.0039 67.9631 34.1026C67.994 34.3386 67.9762 34.5786 67.9108 34.8075C67.8443 35.0417 67.7094 35.2507 67.5235 35.4078C67.3821 35.526 67.2737 35.5628 67.2678 35.5531C67.262 35.5434 67.3531 35.4795 67.4751 35.3594C67.6317 35.1961 67.7455 34.9965 67.8062 34.7784C67.9611 34.2672 67.8508 33.8218 67.8876 33.8198Z" fill="#263238"/>
<path d="M67.3634 34.5015C67.4055 34.7006 67.3887 34.9078 67.3151 35.0976C67.2415 35.2874 67.1143 35.4517 66.949 35.5705C66.9277 35.5492 67.1078 35.3574 67.2201 35.0611C67.3324 34.7648 67.3344 34.5034 67.3634 34.5015Z" fill="#263238"/>
<path d="M65.6358 28.1299C65.5332 28.3034 65.418 28.4691 65.2911 28.6257C65.1909 28.8006 65.0776 28.9676 64.9521 29.1253C64.9894 28.9209 65.0772 28.7292 65.2078 28.5676C65.311 28.3877 65.4583 28.2371 65.6358 28.1299Z" fill="#263238"/>
<path d="M59.0086 23.4396C58.8611 23.353 58.7182 23.2586 58.5807 23.1569C57.8919 22.7044 57.1103 22.4125 56.2935 22.3028C56.1225 22.2904 55.9525 22.2677 55.7842 22.2351C55.9557 22.2114 56.1297 22.2114 56.3013 22.2351C57.1403 22.3067 57.9438 22.606 58.6252 23.1007C58.7681 23.1954 58.8972 23.3094 59.0086 23.4396Z" fill="#263238"/>
<path d="M69.1935 20.3682C68.8469 20.6473 68.5231 20.9536 68.2252 21.2842C67.9509 21.637 67.7054 22.0113 67.4912 22.4035C67.5141 22.2716 67.5593 22.1446 67.6248 22.0278C67.7651 21.7375 67.9407 21.4656 68.1477 21.2183C68.3554 20.9716 68.5935 20.7523 68.8565 20.5657C68.9566 20.4809 69.0706 20.4141 69.1935 20.3682Z" fill="#263238"/>
<path d="M65.2073 18.7725C65.2249 18.8004 65.2392 18.8303 65.2499 18.8615C65.2877 18.9493 65.3181 19.0399 65.3409 19.1327C65.4226 19.4778 65.4226 19.8372 65.3409 20.1823C65.2204 20.6975 64.9446 21.1633 64.5508 21.5166C64.0537 21.9377 63.4204 22.1635 62.7691 22.1519C62.1172 22.1541 61.4821 21.9455 60.9584 21.5573C60.5411 21.2387 60.2025 20.8286 59.9688 20.3585C59.8113 20.0438 59.7004 19.7078 59.6395 19.3612C59.6218 19.2678 59.6101 19.1734 59.6047 19.0784C59.5992 19.0451 59.5992 19.0111 59.6047 18.9777C59.6047 18.9777 59.626 19.1133 59.6802 19.3534C59.7555 19.6903 59.8747 20.0159 60.0346 20.3218C60.2708 20.7777 60.6064 21.1747 61.0165 21.4837C61.5211 21.8574 62.1315 22.0609 62.7594 22.0647C63.3872 22.0762 63.9982 21.8618 64.4811 21.4605C64.8615 21.1201 65.1313 20.6736 65.2557 20.1784C65.3419 19.8442 65.3538 19.4952 65.2906 19.1559C65.2538 18.9003 65.1957 18.7763 65.2073 18.7725Z" fill="#263238"/>
<g opacity="0.3">
<path opacity="0.3" d="M65.8856 28.4731C65.8856 28.3763 65.8701 28.262 65.7849 28.2136C65.7579 28.2 65.728 28.1929 65.6977 28.1929C65.6675 28.1929 65.6376 28.2 65.6106 28.2136C65.5564 28.2429 65.5084 28.2823 65.4692 28.3298C65.2415 28.5667 65.0655 28.8483 64.9521 29.1567L65.9011 29.0734C65.8953 28.8778 65.8914 28.6726 65.8856 28.4731Z" fill="black"/>
</g>
<g opacity="0.3">
<path opacity="0.3" d="M69.0361 26.4762C68.9407 25.9332 68.7028 25.4253 68.3467 25.0044C68.7572 26.3445 68.6197 27.1017 68.3893 28.0197L68.4396 27.8919C68.705 27.3554 69.1078 27.0185 69.0361 26.4762Z" fill="black"/>
</g>
<path d="M67.1404 71.4947L66.5614 80.1804L62.785 80.1359L62.1904 71.1055L67.1404 71.4947Z" fill="#FFBE9D"/>
<path d="M66.6677 79.0378V79.2896C66.6677 79.2896 70.9282 81.0015 70.9689 81.8072L62.5078 81.7607L62.6395 78.9468C63.9002 79.5374 65.2191 79.611 66.6677 79.0378Z" fill="#FF725E"/>
<path d="M63.4979 79.8491C63.4176 79.8734 63.3489 79.9261 63.3047 79.9974C63.2605 80.0687 63.2438 80.1537 63.2577 80.2364C63.2784 80.319 63.3304 80.3904 63.4026 80.4355C63.4748 80.4807 63.5617 80.4961 63.6451 80.4785C63.7312 80.4527 63.8047 80.3958 63.8513 80.3189C63.8978 80.2419 63.9141 80.1504 63.8968 80.0621C63.8661 79.9785 63.8041 79.9101 63.7238 79.8714C63.6436 79.8327 63.5514 79.8268 63.4669 79.8549" fill="white"/>
<path d="M62.5078 81.7608L62.5388 81.085L70.6416 81.3793C70.6416 81.3793 71.0173 81.5459 70.9728 81.8093L62.5078 81.7608Z" fill="#263238"/>
<path d="M66.6986 79.3129C66.6986 79.3536 66.4894 79.371 66.2861 79.5066C66.0827 79.6422 65.9723 79.8106 65.9355 79.7952C65.8988 79.7797 65.9607 79.5395 66.2105 79.3846C66.4604 79.2297 66.7083 79.2684 66.6986 79.3129Z" fill="#263238"/>
<path d="M67.5841 79.6848C67.5938 79.7255 67.4137 79.7933 67.2723 79.9676C67.131 80.1419 67.0903 80.3259 67.0477 80.3239C67.0051 80.322 66.9818 80.0877 67.1619 79.8766C67.342 79.6655 67.5822 79.6558 67.5841 79.6848Z" fill="#263238"/>
<path d="M68.0817 80.7499C68.043 80.7499 67.9868 80.5563 68.0953 80.3258C68.2037 80.0953 68.3955 80.0121 68.4129 80.045C68.4303 80.0779 68.3103 80.1999 68.2192 80.3878C68.1282 80.5756 68.1243 80.746 68.0817 80.7499Z" fill="#263238"/>
<path d="M66.4507 7.97191C66.6695 7.42965 66.4042 6.77314 65.9336 6.42261C65.4377 6.09613 64.8329 5.97852 64.2507 6.09533C63.6764 6.21575 63.1203 6.41109 62.5968 6.67631C62.3534 6.43082 62.0466 6.25782 61.7105 6.17662C61.3745 6.09543 61.0225 6.10924 60.6938 6.21651C60.3652 6.32378 60.0728 6.5203 59.8494 6.78411C59.626 7.04792 59.4803 7.36864 59.4285 7.71046C59.2192 7.65776 58.9994 7.66306 58.7928 7.72581C58.5862 7.78855 58.4005 7.90637 58.2558 8.06661C58.1111 8.22686 58.0128 8.42348 57.9713 8.63539C57.9299 8.84729 57.9469 9.06649 58.0206 9.26944L60.6389 10.1893L63.4974 15.2245C63.9198 15.5849 64.459 15.7793 65.0142 15.7715C65.5695 15.7636 66.1029 15.554 66.515 15.1818C66.927 14.8095 67.1896 14.3001 67.2537 13.7485C67.3178 13.1969 67.179 12.6408 66.8632 12.184C67.0234 12.0416 67.1594 11.8742 67.266 11.6883C67.4944 11.5532 67.6937 11.3741 67.8523 11.1613C68.0109 10.9485 68.1256 10.7063 68.1898 10.4488C68.4435 9.32754 67.5759 8.1036 66.4507 7.97191Z" fill="#263238"/>
<path d="M64.7181 18.4587C64.5554 17.6395 64.4431 17.0779 64.445 17.0837C64.447 17.0895 65.9943 16.4834 65.882 14.3279C65.8278 13.255 65.4192 11.5644 65.0396 10.1933C64.6987 8.9577 63.5464 7.59626 62.3283 7.98939L58.6352 9.79044C58.2653 9.91051 58.2014 10.2591 58.2885 10.6367V10.8304L59.7236 16.7681L60.3297 19.4212C60.4589 19.966 60.7874 20.4427 61.2505 20.7574C61.7136 21.0721 62.2777 21.202 62.8318 21.1216C63.1344 21.079 63.4252 20.9751 63.6861 20.8161C63.9471 20.6571 64.1729 20.4465 64.3495 20.1971C64.5261 19.9478 64.65 19.6649 64.7133 19.366C64.7767 19.0671 64.7783 18.7583 64.7181 18.4587Z" fill="#FFBE9D"/>
<path d="M65.0257 11.6263C65.0413 11.6951 65.0298 11.7671 64.9938 11.8277C64.9578 11.8882 64.8999 11.9326 64.8321 11.9517C64.7978 11.9613 64.762 11.9638 64.7268 11.9591C64.6916 11.9545 64.6577 11.9428 64.6271 11.9247C64.5965 11.9066 64.5699 11.8825 64.5489 11.8539C64.5279 11.8252 64.5129 11.7926 64.5048 11.758C64.4893 11.6896 64.5008 11.6178 64.5368 11.5576C64.5729 11.4973 64.6308 11.4533 64.6984 11.4346C64.7325 11.4248 64.7683 11.4219 64.8035 11.4263C64.8387 11.4307 64.8726 11.4422 64.9033 11.4602C64.9339 11.4781 64.9605 11.5021 64.9816 11.5307C65.0026 11.5592 65.0177 11.5918 65.0257 11.6263Z" fill="#263238"/>
<path d="M64.8567 11.2138C64.8296 11.2564 64.5953 11.1498 64.3087 11.2138C64.0221 11.2777 63.84 11.4636 63.8013 11.4345C63.7626 11.4055 63.8013 11.3513 63.8807 11.266C63.9872 11.1535 64.1258 11.0764 64.2777 11.0453C64.4275 11.013 64.5837 11.0299 64.7231 11.0937C64.8316 11.1382 64.8684 11.1963 64.8567 11.2138Z" fill="#263238"/>
<path d="M62.2133 12.2617C62.2287 12.3302 62.2173 12.402 62.1812 12.4622C62.1451 12.5224 62.0873 12.5664 62.0196 12.5851C61.9862 12.5949 61.9511 12.5979 61.9165 12.594C61.8819 12.5901 61.8484 12.5793 61.818 12.5624C61.7875 12.5455 61.7607 12.5227 61.7392 12.4953C61.7176 12.468 61.7017 12.4366 61.6923 12.4031C61.6768 12.3344 61.6882 12.2623 61.7242 12.2018C61.7603 12.1412 61.8182 12.0968 61.886 12.0777C61.9196 12.068 61.9547 12.0651 61.9894 12.0691C62.0241 12.0732 62.0577 12.084 62.0882 12.1012C62.1186 12.1183 62.1454 12.1413 62.1668 12.1689C62.1883 12.1964 62.2041 12.228 62.2133 12.2617Z" fill="#263238"/>
<path d="M62.0726 11.8973C62.0474 11.9399 61.8111 11.8314 61.5245 11.8973C61.2379 11.9631 61.0558 12.1451 61.0171 12.118C60.9784 12.0909 61.0171 12.0347 61.0965 11.9476C61.2035 11.836 61.342 11.7597 61.4935 11.7288C61.6432 11.6969 61.7991 11.7132 61.9389 11.7752C62.0416 11.8217 62.0861 11.874 62.0726 11.8973Z" fill="#263238"/>
<path d="M63.5304 13.7179C63.6724 13.6395 63.8232 13.5784 63.9797 13.5358C64.0514 13.5126 64.1191 13.4835 64.1211 13.4312C64.111 13.3542 64.0779 13.282 64.0262 13.224L63.6912 12.7089C63.2225 11.9749 62.8662 11.3668 62.8952 11.3533C62.9243 11.3397 63.329 11.9149 63.7977 12.6489L64.125 13.1679C64.1893 13.2473 64.2241 13.3465 64.2237 13.4487C64.2179 13.4765 64.2061 13.5028 64.189 13.5255C64.172 13.5483 64.1501 13.567 64.125 13.5804C64.0871 13.6004 64.0467 13.6154 64.0049 13.6249C63.8517 13.6774 63.6921 13.7086 63.5304 13.7179Z" fill="#263238"/>
<path d="M64.4446 17.0836C63.465 17.305 62.4433 17.25 61.4932 16.9248C61.4932 16.9248 62.5079 18.2494 64.555 17.6162L64.4446 17.0836Z" fill="#EB996E"/>
<path d="M62.1203 11.4867C62.101 11.57 61.8047 11.568 61.4677 11.6513C61.1307 11.7346 60.8635 11.8605 60.8093 11.7946C60.786 11.7636 60.8247 11.6823 60.9274 11.601C61.0638 11.4861 61.2259 11.4057 61.3999 11.3666C61.5725 11.3257 61.7522 11.3257 61.9247 11.3666C62.0622 11.3918 62.1339 11.448 62.1203 11.4867Z" fill="#263238"/>
<path d="M64.747 10.2996C64.7005 10.377 64.4526 10.3577 64.166 10.4138C63.8794 10.47 63.6528 10.5668 63.585 10.5107C63.554 10.4816 63.585 10.408 63.6683 10.317C63.7962 10.2095 63.9507 10.1385 64.1156 10.1117C64.2778 10.079 64.4459 10.0911 64.6017 10.1466C64.7199 10.2008 64.7664 10.2608 64.747 10.2996Z" fill="#263238"/>
<path d="M59.5469 8.4036C59.5898 8.6134 59.6783 8.81118 59.8062 8.98289C59.9341 9.15461 60.0983 9.29605 60.287 9.39717C60.4758 9.49829 60.6844 9.5566 60.8983 9.56797C61.1121 9.57933 61.3258 9.54347 61.5242 9.46293C61.8302 9.33899 62.1478 9.1066 62.4576 9.21892C62.7675 9.33124 62.8953 9.77279 63.1916 9.9374C63.6274 10.1814 64.1599 9.75924 64.646 9.80184C65.0333 9.83476 65.3258 10.1311 65.6259 10.3828C65.9261 10.6346 66.3406 10.8244 66.6795 10.6423C66.6019 10.3189 66.4868 10.0057 66.3367 9.70888C66.1852 9.41011 65.9347 9.17325 65.6279 9.03881C65.4575 8.97103 65.2735 8.94779 65.1108 8.86452C64.7603 8.68635 64.6034 8.28353 64.3497 7.97949C64.1831 7.78788 63.9732 7.63875 63.7375 7.54445C63.5017 7.45015 63.2469 7.41339 62.9941 7.43723C62.5758 7.47984 62.1788 7.69093 61.7566 7.6735C61.4448 7.65994 61.1465 7.52051 60.8348 7.52632C60.2286 7.52632 59.7735 8.06857 59.4365 8.57403" fill="#263238"/>
<path d="M61.5881 8.84741C61.3092 8.82611 60.7399 8.76801 60.552 8.57048C60.3612 8.35703 60.1176 8.19745 59.8457 8.10772C59.5738 8.018 59.2831 8.00127 59.0027 8.05921C58.7245 8.14216 58.4802 8.31225 58.3059 8.54444C58.1316 8.77663 58.0364 9.05866 58.0344 9.349C57.6956 9.43169 57.3854 9.60435 57.1365 9.84876C56.8877 10.0932 56.7095 10.4002 56.6207 10.7375C56.5306 11.0907 56.5275 11.4604 56.6119 11.8149C56.6962 12.1695 56.8654 12.4982 57.1049 12.7729C57.2212 12.9184 57.3273 13.0718 57.4225 13.2319C57.2911 13.3948 57.1757 13.5699 57.0777 13.7548C56.6343 14.7347 57.8369 15.1104 57.8369 15.1104C57.8369 15.7689 58.4469 15.765 58.8362 15.7631C59.2255 15.7611 59.4404 16.8011 59.7445 16.7604L59.4365 13.5514C59.4816 13.569 59.5295 13.5782 59.5779 13.5786C60.3119 13.5921 60.1202 12.2016 59.8839 11.8356C60.1026 11.5634 60.2873 11.2655 60.4339 10.9486C60.5668 10.4642 60.5762 9.95416 60.461 9.46519C60.707 9.43421 61.7082 8.85516 61.5881 8.84741Z" fill="#263238"/>
<path d="M59.5331 13.7216C59.5081 13.6197 59.4577 13.5257 59.3865 13.4485C59.3154 13.3713 59.2259 13.3133 59.1263 13.2801C59.0267 13.2468 58.9203 13.2393 58.817 13.2583C58.7138 13.2772 58.617 13.322 58.5357 13.3885C58.3421 13.5551 58.2394 13.8339 58.3556 14.3007C58.6694 15.5478 59.8565 14.9765 59.8488 14.9417C59.841 14.9068 59.6687 14.2368 59.5331 13.7216Z" fill="#FFBE9D"/>
<path d="M59.349 14.5642C59.349 14.5642 59.3316 14.5855 59.2987 14.6106C59.2529 14.6458 59.1953 14.6617 59.1379 14.6552C58.9946 14.6397 58.83 14.4615 58.768 14.2349C58.7385 14.1291 58.7325 14.018 58.7506 13.9096C58.7526 13.8675 58.7647 13.8265 58.7859 13.79C58.8072 13.7536 58.8369 13.7229 58.8726 13.7004C58.8961 13.6878 58.9233 13.6837 58.9495 13.689C58.9757 13.6943 58.9992 13.7087 59.0159 13.7295C59.0411 13.7585 59.0392 13.7856 59.0469 13.7876C59.0546 13.7895 59.0682 13.7585 59.0469 13.7101C59.032 13.6814 59.0083 13.6583 58.9791 13.6443C58.9381 13.6277 58.8923 13.6277 58.8513 13.6443C58.8027 13.6674 58.7607 13.7024 58.7292 13.7461C58.6977 13.7897 58.6777 13.8407 58.6712 13.8941C58.6461 14.0161 58.6507 14.1423 58.6848 14.2621C58.7064 14.3745 58.7607 14.4781 58.841 14.5597C58.9213 14.6414 59.0239 14.6975 59.136 14.721C59.1724 14.7225 59.2088 14.7158 59.2423 14.7014C59.2758 14.687 59.3056 14.6652 59.3296 14.6378C59.3548 14.5951 59.3548 14.5661 59.349 14.5642Z" fill="#EB996E"/>
<path d="M66.2209 11.9807C66.2209 11.9807 66.3352 11.8936 66.494 11.6999C66.7131 11.4209 66.8475 11.0848 66.8813 10.7316C66.9069 10.4905 66.8832 10.2467 66.8116 10.0151C66.7289 9.74937 66.5756 9.51109 66.3681 9.32564C66.1285 9.11642 65.8384 8.97347 65.5266 8.91096C65.2147 8.84846 64.892 8.86857 64.5903 8.9693C64.5322 8.98867 64.478 9.01772 64.4237 9.04096C64.3695 9.0642 64.3211 9.09906 64.2707 9.12811L64.1933 9.17071V9.0855C64.1916 8.93548 64.1359 8.79109 64.0364 8.67881C63.9345 8.56984 63.8094 8.48513 63.6704 8.43093C63.4074 8.32132 63.116 8.29958 62.8396 8.36895C62.3051 8.49096 61.8519 8.73497 61.4239 8.78533C61.0883 8.84365 60.743 8.77459 60.4556 8.59166C60.3798 8.53949 60.3141 8.47385 60.2619 8.398C60.231 8.34571 60.2155 8.31667 60.2193 8.31473C60.2895 8.41036 60.3753 8.4935 60.473 8.56068C60.7558 8.72389 61.0879 8.77959 61.4084 8.71754C61.6314 8.67559 61.8495 8.61069 62.0591 8.52388C62.3052 8.42549 62.5575 8.34334 62.8144 8.27793C62.9576 8.24329 63.1048 8.2283 63.2521 8.23339C63.4074 8.2416 63.5602 8.27699 63.7033 8.33797C63.8514 8.40124 63.9837 8.49647 64.0906 8.61684C64.2052 8.74795 64.2696 8.91532 64.2727 9.08937L64.1952 9.04677L64.3559 8.95381C64.416 8.93057 64.4721 8.89959 64.5341 8.87828C64.8521 8.76939 65.1932 8.74662 65.5228 8.81226C65.8524 8.87791 66.1587 9.02965 66.4107 9.25205C66.6285 9.44923 66.7879 9.70246 66.8716 9.98409C66.9585 10.2826 66.9702 10.5979 66.9057 10.902C66.8411 11.2062 66.7024 11.4896 66.5017 11.727C66.4379 11.7998 66.3658 11.8648 66.2867 11.9207C66.2673 11.9433 66.2452 11.9635 66.2209 11.9807Z" fill="#455A64"/>
<path d="M65.9691 7.60211C65.842 7.53756 65.7064 7.49127 65.5663 7.46461C65.4062 7.44272 65.2432 7.45796 65.0899 7.50915C64.8914 7.56988 64.7189 7.69532 64.5999 7.86549L64.5515 7.93327L64.5225 7.8558C64.4214 7.61774 64.2586 7.41095 64.0509 7.25674C63.8433 7.10253 63.5983 7.00649 63.3411 6.97852C62.9373 6.96333 62.5393 7.07878 62.2063 7.30774C61.9226 7.49268 61.6209 7.64841 61.3058 7.77253C61.0885 7.8547 60.8545 7.88262 60.6241 7.85386C60.5626 7.84252 60.5024 7.82567 60.444 7.80351C60.4052 7.78608 60.3839 7.7764 60.3859 7.77253C60.3878 7.76865 60.473 7.7977 60.6299 7.8132C60.8527 7.82712 61.0757 7.79071 61.2825 7.70668C61.5887 7.57316 61.8823 7.41242 62.1598 7.2264C62.3312 7.11998 62.5129 7.03109 62.7021 6.96109C62.9101 6.88524 63.1324 6.85679 63.3528 6.87781C63.6274 6.9078 63.8888 7.01171 64.1091 7.17847C64.3294 7.34523 64.5004 7.5686 64.6038 7.82482H64.5283C64.6614 7.64282 64.8516 7.51058 65.0686 7.44911C65.2335 7.40132 65.4072 7.3927 65.576 7.42394C65.6828 7.44423 65.7852 7.48359 65.8781 7.54013C65.9112 7.55635 65.9419 7.57722 65.9691 7.60211Z" fill="#455A64"/>
<path d="M63.4186 14.2913C63.3734 14.2534 63.3206 14.2256 63.2639 14.2096C63.2072 14.1936 63.1477 14.1897 63.0894 14.1983C63.0212 14.2129 62.9568 14.2416 62.9004 14.2826C62.844 14.3237 62.7969 14.3761 62.7621 14.4365C62.7621 14.4365 62.7524 14.4462 62.7504 14.452C62.7238 14.4962 62.7116 14.5477 62.7156 14.5992C62.724 14.6553 62.7461 14.7085 62.7798 14.754C62.8136 14.7996 62.858 14.8362 62.9092 14.8606C62.9911 14.9021 63.0838 14.9173 63.1746 14.9041C63.2654 14.891 63.35 14.8501 63.4166 14.787C63.4799 14.7201 63.5154 14.6316 63.5157 14.5395C63.5161 14.4474 63.4814 14.3586 63.4186 14.2913Z" fill="#FF725E"/>
<path d="M63.5155 14.8933C63.5 14.8933 63.4826 14.8352 63.4303 14.7558C63.3673 14.6494 63.2732 14.5648 63.1607 14.5136C63.0481 14.4623 62.9225 14.4468 62.8009 14.4692C62.706 14.4828 62.6479 14.5099 62.6421 14.4963C62.6363 14.4828 62.6808 14.4363 62.7854 14.3995C62.9223 14.3555 63.0706 14.3637 63.2018 14.4228C63.3341 14.4817 63.4388 14.5891 63.4942 14.7229C63.5349 14.8236 63.5291 14.8914 63.5155 14.8933Z" fill="#263238"/>
<path d="M59.5627 15.1337C59.5627 15.1337 59.6189 15.2305 59.5453 15.3777C59.5037 15.4658 59.4304 15.5349 59.34 15.5714C59.2836 15.5916 59.2233 15.5984 59.1638 15.5913C59.1044 15.5843 59.0473 15.5635 58.9972 15.5307C58.9463 15.4997 58.9032 15.4574 58.8712 15.407C58.8393 15.3566 58.8195 15.2995 58.8133 15.2402C58.8074 15.1446 58.8355 15.0499 58.8927 14.973C58.9934 14.8452 59.1057 14.8413 59.1057 14.8529C59.1057 14.8645 59.0205 14.8974 58.9527 15.0136C58.9135 15.0787 58.8971 15.1551 58.9062 15.2305C58.9134 15.2747 58.9302 15.3168 58.9553 15.354C58.9803 15.3911 59.0132 15.4223 59.0515 15.4455C59.0893 15.4697 59.1317 15.4856 59.1761 15.4923C59.2205 15.499 59.2658 15.4962 59.309 15.4842C59.3805 15.4586 59.4422 15.4112 59.4853 15.3487C59.5608 15.2286 59.5472 15.1337 59.5627 15.1337Z" fill="#FF725E"/>
<path d="M58.9098 15.0582C58.9195 15.0582 58.9098 15.1241 58.8188 15.1667C58.7741 15.1852 58.725 15.1906 58.6773 15.1822C58.6296 15.1738 58.5853 15.1519 58.5497 15.1191C58.5141 15.0863 58.4886 15.044 58.4762 14.9972C58.4638 14.9504 58.4651 14.901 58.4799 14.8549C58.4989 14.8025 58.5351 14.7581 58.5825 14.729C58.662 14.6806 58.722 14.6999 58.72 14.7116C58.7181 14.7232 58.6736 14.7367 58.6252 14.7851C58.6013 14.8149 58.5868 14.851 58.5834 14.889C58.5801 14.927 58.588 14.9651 58.6062 14.9986C58.6244 15.0321 58.652 15.0595 58.6857 15.0773C58.7194 15.0952 58.7576 15.1027 58.7956 15.0989C58.8614 15.0853 58.8963 15.0505 58.9098 15.0582Z" fill="#FF725E"/>
<path d="M61.038 32.2571C61.038 32.2571 65.833 32.536 68.6682 32.5611C70.8624 32.5824 71.8423 31.9995 72.28 30.5877C72.648 29.4045 71.8578 27.1328 71.8578 27.1328C70.3725 27.1328 69.4564 27.3458 68.5017 27.7932L68.7554 28.8312L61.0244 29.4974L61.038 32.2571Z" fill="#FFBE9D"/>
<path d="M70.3667 29.9392C70.1588 29.6688 69.9159 29.4272 69.6444 29.2207C69.3531 29.0425 69.0391 28.9044 68.7109 28.8101C68.8143 28.7952 68.9197 28.8045 69.0189 28.8372C69.2625 28.8948 69.4936 28.9965 69.7006 29.1374C69.9079 29.2787 70.0872 29.4573 70.2292 29.6642C70.3377 29.823 70.3784 29.9333 70.3667 29.9392Z" fill="#EB996E"/>
<path d="M59.2837 27.7852C59.2837 27.7852 57.8003 28.1415 56.71 28.8697L57.8719 32.0186C58.2593 33.0528 59.4425 33.5679 60.3895 33.0257C61.8478 32.191 62.3629 29.7586 62.3629 29.7586L63.9645 22.81L61.3094 21.1465L59.2934 27.7852" fill="#FFBE9D"/>
<path d="M61.2998 21.1468L61.4083 18.8616L60.8137 16.5377C60.7808 16.4099 60.7653 16.2491 60.8699 16.1717C60.9217 16.1319 60.9858 16.1113 61.0511 16.1134C61.1164 16.1155 61.179 16.1402 61.2282 16.1833C61.3889 16.3498 62.1635 18.3813 62.1635 18.3813C62.1635 18.3813 63.3391 17.6764 63.5482 17.6415C63.7574 17.6067 64.0188 18.24 64.0362 18.2884C64.0439 18.4303 64.0439 18.5725 64.0362 18.7144C64.0362 18.7144 64.7625 18.7357 64.8283 18.8345C64.8811 19.0363 64.9091 19.2437 64.9116 19.4523C64.9116 19.4523 65.2195 19.551 65.2679 19.7834C65.3163 20.0158 65.417 20.3993 65.2679 20.4845C65.1188 20.5697 64.8167 20.7362 64.8167 20.7362C64.8167 20.7362 64.6947 21.9215 64.6618 22.0299C64.6288 22.1384 63.9491 22.8046 63.9491 22.8046L61.2998 21.1468Z" fill="#FFBE9D"/>
<path d="M58.8281 33.0726C58.8281 33.0726 58.8998 33.1152 59.0508 33.1637C59.2717 33.233 59.5054 33.2515 59.7345 33.2179C60.1024 33.1654 60.4471 33.0065 60.726 32.7608C61.0946 32.4264 61.406 32.0339 61.6478 31.5989C61.7902 31.3432 61.9101 31.0756 62.0061 30.7991C62.1068 30.4948 62.1902 30.1851 62.2559 29.8714C62.407 29.2188 62.5716 28.5158 62.7459 27.7683C63.0945 26.2751 63.4857 24.6058 63.9079 22.8066V22.7931H63.9175C64.0512 22.6614 64.1848 22.5278 64.3184 22.3883C64.3843 22.3186 64.4501 22.2489 64.5121 22.1773C64.5431 22.1405 64.576 22.1037 64.6012 22.0669C64.6208 22.0304 64.632 21.9901 64.6341 21.9487C64.6864 21.5614 64.727 21.1605 64.7697 20.7558V20.7306L64.7929 20.719L65.1628 20.5118C65.1899 20.4943 65.2325 20.475 65.2499 20.4595C65.2684 20.4427 65.2807 20.4202 65.2848 20.3956C65.2938 20.3313 65.2938 20.2661 65.2848 20.2019C65.266 20.0599 65.2369 19.9194 65.1977 19.7817C65.1318 19.6612 65.0212 19.5715 64.8897 19.5318L64.8568 19.5202V19.4873C64.8568 19.375 64.8452 19.2588 64.8316 19.1445C64.8264 19.0873 64.818 19.0304 64.8065 18.9741C64.8019 18.9493 64.7941 18.9252 64.7832 18.9024C64.7832 18.8889 64.7832 18.9024 64.7716 18.8908C64.7611 18.8853 64.75 18.8808 64.7387 18.8773C64.5058 18.8265 64.2682 18.7999 64.0299 18.7979H63.9795V18.7475C63.9795 18.6274 63.9795 18.4938 63.9795 18.3602C63.9715 18.3146 63.9558 18.2707 63.933 18.2304C63.9137 18.184 63.8904 18.1394 63.8672 18.0929C63.8219 18.0032 63.7687 17.9177 63.7084 17.8373C63.681 17.7998 63.6476 17.7671 63.6096 17.7405C63.5956 17.7286 63.5783 17.7212 63.5601 17.7191C63.5418 17.717 63.5233 17.7204 63.507 17.7288C63.4133 17.7647 63.3221 17.8068 63.2339 17.8547C62.8737 18.0484 62.5212 18.2421 62.1765 18.4512L62.1262 18.4822L62.1049 18.428C61.9228 17.969 61.7408 17.5158 61.5626 17.0723C61.4735 16.8496 61.3864 16.6269 61.2973 16.4081C61.2836 16.3591 61.2563 16.3149 61.2186 16.2806C61.1809 16.2464 61.1344 16.2234 61.0843 16.2144C61.038 16.1991 60.9879 16.1999 60.9421 16.2168C60.8964 16.2337 60.8577 16.2656 60.8325 16.3074C60.8084 16.3489 60.7982 16.3971 60.8035 16.4449C60.8035 16.4875 60.8306 16.5533 60.8422 16.6056C60.8732 16.7179 60.9022 16.8283 60.9313 16.9387C60.9894 17.1614 61.0455 17.3803 61.1036 17.5972C61.2173 18.0335 61.3289 18.4596 61.4387 18.8753V18.8889C61.4 19.6842 61.3632 20.4459 61.3283 21.1741V21.1702L59.564 26.9103L59.0663 28.508C59.0082 28.6881 58.9637 28.8295 58.9327 28.9283C58.9017 29.0271 58.8823 29.0697 58.8823 29.0697C58.8823 29.0697 58.892 29.0193 58.9191 28.9244L59.0412 28.5003C59.1535 28.1265 59.3142 27.5862 59.5176 26.8968C59.9359 25.5102 60.5304 23.5309 61.2489 21.145V21.1547C61.2825 20.4291 61.3167 19.6674 61.3515 18.8695V18.8831C61.2411 18.4667 61.1269 18.0406 61.0126 17.6068L60.8383 16.9484C60.8093 16.838 60.7802 16.7257 60.7492 16.6153C60.7326 16.5573 60.719 16.4985 60.7086 16.4391C60.7014 16.3718 60.7157 16.3041 60.7492 16.2454C60.7851 16.185 60.8404 16.1386 60.9061 16.1137C60.9711 16.0947 61.0399 16.0925 61.106 16.1074C61.172 16.1223 61.2332 16.1538 61.2838 16.1989C61.3324 16.2445 61.3684 16.3019 61.3883 16.3655L61.6536 17.0297C61.8337 17.4752 62.0139 17.9283 62.1978 18.3854L62.1262 18.3602C62.4728 18.1549 62.8214 17.9496 63.1894 17.7579C63.2824 17.7093 63.3781 17.666 63.476 17.6281C63.5066 17.6154 63.5399 17.6108 63.5728 17.6146C63.606 17.6194 63.6377 17.6313 63.6658 17.6494C63.7124 17.6829 63.7536 17.7234 63.7878 17.7695C63.8525 17.8543 63.909 17.9451 63.9563 18.0406C63.9815 18.0891 64.0047 18.1355 64.026 18.184C64.0536 18.2352 64.0719 18.2909 64.0802 18.3486C64.0802 18.4861 64.0802 18.6139 64.0802 18.7359L64.0318 18.6836C64.2808 18.6853 64.5288 18.7138 64.7716 18.7688C64.7883 18.7746 64.8045 18.7818 64.82 18.7901C64.8413 18.8017 64.8588 18.8192 64.8704 18.8405C64.8854 18.8719 64.8964 18.9051 64.9033 18.9392C64.9149 19.0012 64.9227 19.0593 64.9304 19.1193C64.942 19.2375 64.9498 19.3537 64.9556 19.4699L64.9207 19.4234C64.9999 19.4466 65.0735 19.4857 65.1371 19.5383C65.2007 19.5909 65.2529 19.6559 65.2906 19.7294C65.333 19.8765 65.3641 20.0267 65.3836 20.1787C65.397 20.2562 65.397 20.3355 65.3836 20.413C65.3751 20.46 65.3505 20.5025 65.3138 20.5331C65.2821 20.5543 65.2491 20.5737 65.2151 20.5912L64.8471 20.7829L64.8723 20.7461C64.8278 21.1508 64.7871 21.5479 64.7329 21.941L64.7212 22.0165C64.7168 22.0471 64.704 22.0759 64.6844 22.0998C64.6559 22.1422 64.6242 22.1823 64.5896 22.2199C64.5237 22.2934 64.4579 22.3651 64.3959 22.4348C64.2623 22.5743 64.1286 22.7079 63.9931 22.8396L64.0066 22.8163C63.5806 24.6135 63.1855 26.2829 62.8311 27.776C62.6549 28.5216 62.4864 29.2246 62.3315 29.8753C62.2652 30.1913 62.1798 30.503 62.0758 30.8087C61.9762 31.0878 61.8531 31.358 61.7079 31.6163C61.4605 32.0569 61.1418 32.4535 60.7647 32.7899C60.4775 33.0372 60.124 33.1948 59.748 33.2431C59.514 33.2745 59.2759 33.2506 59.0528 33.1733C58.996 33.1525 58.941 33.1272 58.8882 33.0978L58.8281 33.0726Z" fill="#EB996E"/>
<path d="M64.038 18.7204C64.038 18.7339 63.9722 18.7417 63.8696 18.7455C63.7392 18.748 63.6095 18.7636 63.4822 18.792C63.3594 18.8222 63.2462 18.8828 63.153 18.9682C63.0833 19.0341 63.0523 19.0902 63.0368 19.0844C63.0213 19.0786 63.0368 19.0089 63.1007 18.9198C63.1909 18.8071 63.3164 18.7279 63.4571 18.6952C63.5926 18.6618 63.7334 18.6552 63.8715 18.6758C63.9761 18.6894 64.038 18.7068 64.038 18.7204Z" fill="#EB996E"/>
<path d="M63.4766 18.7415C63.4515 18.7318 63.4495 18.6718 63.4766 18.6079C63.5038 18.544 63.5425 18.4995 63.5677 18.5091C63.5928 18.5188 63.5967 18.5789 63.5677 18.6428C63.5386 18.7067 63.496 18.7512 63.4766 18.7415Z" fill="#EB996E"/>
<path d="M64.9439 19.4444C64.7559 19.5026 64.5596 19.5294 64.3629 19.5238C64.301 19.5218 64.2395 19.5346 64.1836 19.5612C64.1276 19.5878 64.0789 19.6275 64.0414 19.6768C63.9911 19.7562 64.0085 19.8221 63.993 19.826C63.9775 19.8298 63.931 19.7621 63.9795 19.6459C64.0061 19.5804 64.0547 19.5263 64.117 19.4929C64.1887 19.4535 64.2679 19.4298 64.3494 19.4231C64.5471 19.3929 64.7488 19.4001 64.9439 19.4444Z" fill="#EB996E"/>
<path d="M64.8167 20.1416C64.8438 20.1416 64.8593 20.2849 64.8516 20.4612C64.8438 20.6374 64.8148 20.7768 64.7877 20.7768C64.7606 20.7768 64.7431 20.6316 64.7509 20.4554C64.7586 20.2791 64.7877 20.1397 64.8167 20.1416Z" fill="#EB996E"/>
<path d="M65.6201 25.3569L65.7925 24.7643C65.8004 24.7372 65.8152 24.7126 65.8355 24.6929C65.8557 24.6732 65.8808 24.6592 65.9082 24.6522C65.9355 24.6451 65.9642 24.6453 65.9915 24.6528C66.0188 24.6602 66.0436 24.6746 66.0636 24.6946L66.2902 24.925L66.4296 24.3653C66.4378 24.333 66.4558 24.304 66.481 24.2822C66.5063 24.2604 66.5376 24.2469 66.5708 24.2435C66.604 24.2401 66.6374 24.247 66.6665 24.2633C66.6957 24.2795 66.7191 24.3043 66.7337 24.3344L67.0493 24.9967L65.6201 25.3569Z" fill="white"/>
<path d="M67.0536 25.2505C66.8369 25.3552 66.6069 25.4295 66.3699 25.4713C66.1408 25.5461 65.9021 25.5879 65.6611 25.5952C66.107 25.4161 66.5756 25.3001 67.0536 25.2505Z" fill="white"/>
<path d="M55.5358 21.9443C55.5358 21.9443 55.4642 22.0179 55.3635 22.1748C55.2283 22.3982 55.1394 22.6465 55.102 22.9049C55.0469 23.2897 55.0352 23.6795 55.0672 24.0669C55.0885 24.5065 55.1233 24.9868 55.1776 25.4903C55.2693 26.3502 55.4057 27.2047 55.5862 28.0505C55.654 28.3758 55.716 28.6315 55.7586 28.8251C55.7779 28.9065 55.7954 28.9742 55.8089 29.0323C55.8225 29.0904 55.8244 29.1059 55.8244 29.1059C55.8244 29.1059 55.8147 29.0827 55.8012 29.0362C55.7876 28.9897 55.7663 28.9084 55.745 28.829C55.6966 28.6489 55.6307 28.3894 55.5513 28.064C55.3631 27.2186 55.2228 26.3632 55.1311 25.5019C55.0769 24.9984 55.0439 24.5162 55.0246 24.0765C54.9952 23.6889 55.0095 23.2991 55.0672 22.9146C55.1088 22.6528 55.2037 22.4023 55.3461 22.1787C55.3985 22.0924 55.4623 22.0136 55.5358 21.9443Z" fill="white"/>
<path d="M59.6127 19.307L59.5682 19.3302L59.4403 19.3922C59.33 19.4445 59.1692 19.522 58.9775 19.6285C58.4777 19.9072 57.9923 20.211 57.5231 20.5387C56.9692 20.926 56.4793 21.2785 56.121 21.5341L55.6969 21.8343L55.5787 21.9137C55.5655 21.9242 55.5513 21.9333 55.5361 21.9408C55.5472 21.9278 55.5603 21.9167 55.5749 21.9079L55.6872 21.8227L56.1036 21.5109C56.458 21.2494 56.946 20.8853 57.4999 20.5058C57.9699 20.1767 58.4588 19.8754 58.9639 19.6033C59.1576 19.5007 59.3203 19.4271 59.4345 19.3787L59.5643 19.3244C59.603 19.3109 59.603 19.3051 59.6127 19.307Z" fill="white"/>
<path d="M68.8483 20.5676C68.8361 20.5609 68.825 20.5524 68.8154 20.5425L68.7282 20.4669C68.6203 20.3758 68.5071 20.2911 68.3893 20.2132C67.9962 19.9626 67.579 19.7517 67.1441 19.5838C66.7104 19.4121 66.2675 19.2647 65.8175 19.1423C65.6432 19.0939 65.5037 19.059 65.405 19.0358L65.2946 19.0067C65.2811 19.0039 65.2681 18.9994 65.2559 18.9932H65.2965L65.4089 19.0145C65.5076 19.0338 65.649 19.0648 65.8233 19.1094C66.2776 19.2241 66.724 19.3683 67.1595 19.5412C67.597 19.7091 68.0146 19.9247 68.4048 20.1842C68.5672 20.2941 68.716 20.4228 68.8483 20.5676Z" fill="white"/>
<path d="M59.6673 35.3498C59.6411 35.3451 59.6156 35.3366 59.5918 35.3246C59.5245 35.295 59.4598 35.2601 59.3982 35.22C59.2938 35.1575 59.2028 35.075 59.1304 34.9773C59.058 34.8796 59.0055 34.7686 58.976 34.6506C58.9228 34.4125 58.9493 34.1634 59.0515 33.9418C59.081 33.873 59.1187 33.808 59.1638 33.7482C59.1948 33.7075 59.2161 33.6881 59.218 33.6901C59.1652 33.7727 59.118 33.8587 59.0767 33.9476C58.9867 34.1652 58.9657 34.4052 59.0166 34.6351C59.0721 34.8621 59.2102 35.0603 59.404 35.1909C59.5647 35.3071 59.6712 35.342 59.6673 35.3498Z" fill="white"/>
<path d="M59.0508 33.2524C59.092 33.3293 59.1226 33.4114 59.1418 33.4965C59.1721 33.5779 59.1904 33.6634 59.196 33.7502C59.152 33.6751 59.1206 33.5933 59.1031 33.5081C59.0713 33.4264 59.0536 33.34 59.0508 33.2524Z" fill="white"/>
<path d="M61.6693 76.6735L67.576 76.6445L67.4694 56.2229L67.4133 35.4488L59.4093 35.3462L57.9704 38.0575C57.3816 39.1475 57.0063 40.3398 56.8645 41.5705C56.7677 42.5117 57.4726 45.5715 57.7167 46.3462L59.9186 53.3296L61.6693 76.6735Z" fill="#263238"/>
<path d="M69.1464 35.474L75.6379 53.1688C76.0225 54.3089 76.1502 55.52 76.012 56.7152C75.8737 57.9105 75.4728 59.0604 74.8381 60.0825L67.3008 74.8008L63.0635 69.4984L69.3691 56.3294L63.811 47.3144L64.7464 35.5011L67.3647 35.4585L69.1464 35.474Z" fill="#263238"/>
<path d="M66.875 41.4019C66.875 41.4019 66.875 41.4328 66.875 41.4929C66.875 41.5529 66.8847 41.6459 66.8924 41.7601C66.906 41.9983 66.9234 42.3411 66.9467 42.7846C66.9912 43.6812 67.0532 44.9691 67.1403 46.5591C67.2275 48.149 67.3011 50.045 67.3979 52.1559C67.4444 53.2094 67.4947 54.3152 67.5451 55.4617C67.5819 56.0427 67.5664 56.6236 67.5722 57.2046C67.578 57.7856 67.5722 58.3976 67.5722 59.0057C67.5722 63.8724 67.5877 68.2782 67.5935 71.4717C67.5935 73.0636 67.5935 74.3533 67.5935 75.25C67.5935 75.6935 67.5935 76.0382 67.5935 76.2783C67.5935 76.3907 67.5935 76.472 67.5935 76.5456C67.5935 76.6192 67.5935 76.6366 67.5935 76.6366C67.5935 76.6366 67.5935 76.6056 67.5935 76.5456V76.2783C67.5935 76.0382 67.5935 75.6974 67.5819 75.25C67.5819 74.3533 67.5664 73.0655 67.5548 71.4736C67.5412 68.2801 67.5238 63.8743 67.5044 59.0076C67.5044 58.3995 67.5044 57.7992 67.5044 57.2066C67.5044 56.614 67.516 56.0291 67.4792 55.4636C67.4308 54.3191 67.3824 53.2133 67.3379 52.1597C67.2488 50.0527 67.1674 48.1568 67.1016 46.561C67.0357 44.9652 66.9873 43.6832 66.9505 42.7865C66.935 42.345 66.9234 42.0003 66.9157 41.7601C66.9157 41.6459 66.9157 41.5665 66.9157 41.4929C66.9157 41.4193 66.875 41.4019 66.875 41.4019Z" fill="#455A64"/>
<path d="M66.7256 35.8223C66.7482 35.8846 66.7619 35.9498 66.7663 36.0159C66.7876 36.1399 66.8108 36.32 66.8379 36.5446C66.8883 36.992 66.9425 37.6136 66.9735 38.3011C67.0045 38.9886 67.0064 39.6122 66.9967 40.0634C66.9967 40.2881 66.9832 40.4721 66.9735 40.598C66.9755 40.6633 66.9676 40.7286 66.9502 40.7916C66.9259 40.5497 66.9174 40.3065 66.9251 40.0634C66.9251 39.6122 66.9038 38.9925 66.8728 38.305C66.8418 37.6175 66.7992 36.9997 66.7663 36.5621C66.7387 36.3164 66.7251 36.0694 66.7256 35.8223Z" fill="#455A64"/>
<path d="M65.4248 36.2215C65.4345 36.235 65.3241 36.2854 65.2931 36.4422C65.2844 36.4848 65.2868 36.5289 65.3 36.5702C65.3132 36.6116 65.3368 36.6489 65.3686 36.6785C65.4069 36.7141 65.4547 36.738 65.5062 36.7473C65.5577 36.7565 65.6108 36.7508 65.6591 36.7308C65.7055 36.7069 65.7443 36.6704 65.771 36.6256C65.7977 36.5807 65.8112 36.5293 65.8102 36.4771C65.8084 36.4337 65.7955 36.3916 65.7728 36.3546C65.7501 36.3177 65.7183 36.2871 65.6804 36.266C65.6016 36.2278 65.5138 36.2124 65.4267 36.2215C65.4267 36.2215 65.4461 36.1963 65.4964 36.1808C65.569 36.1631 65.6455 36.1706 65.7133 36.2021C65.7674 36.2246 65.8142 36.2617 65.8484 36.3092C65.8826 36.3567 65.9029 36.4129 65.907 36.4713C65.9147 36.5434 65.8995 36.6161 65.8637 36.6791C65.8279 36.7422 65.7733 36.7924 65.7074 36.8228C65.6416 36.8532 65.5679 36.8621 65.4967 36.8484C65.4255 36.8346 65.3604 36.7989 65.3105 36.7463C65.2693 36.7054 65.2402 36.6539 65.2262 36.5976C65.2122 36.5413 65.2139 36.4822 65.2311 36.4267C65.2506 36.3543 65.2943 36.2907 65.3551 36.2466C65.3938 36.2195 65.4228 36.2156 65.4248 36.2215Z" fill="#455A64"/>
<path d="M62.3262 35.8706C62.3547 35.9316 62.3724 35.9972 62.3785 36.0643C62.4096 36.2381 62.4155 36.4155 62.3959 36.591C62.3681 36.8524 62.2926 37.1064 62.1732 37.3405C62.029 37.6317 61.8155 37.8831 61.5514 38.0725C61.2873 38.2619 60.9808 38.3836 60.6587 38.4269C60.401 38.4654 60.1383 38.4556 59.8841 38.3979C59.7121 38.3606 59.5465 38.2986 59.3922 38.2139C59.3339 38.1863 59.2803 38.1497 59.2334 38.1055C59.4475 38.2018 59.6706 38.2764 59.8996 38.3282C60.175 38.3854 60.4594 38.385 60.7346 38.3268C61.0099 38.2687 61.2701 38.1541 61.4988 37.9903C61.7276 37.8265 61.9199 37.6171 62.0636 37.3753C62.2074 37.1334 62.2994 36.8644 62.3339 36.5852C62.3567 36.3474 62.3541 36.1079 62.3262 35.8706Z" fill="#455A64"/>
<path d="M69.9257 37.5674C69.7993 37.582 69.6713 37.5668 69.5519 37.5229C69.2594 37.4308 68.9967 37.2623 68.7908 37.0349C68.5832 36.8085 68.4406 36.5301 68.3783 36.2292C68.3478 36.1065 68.3478 35.9782 68.3783 35.8555C68.3958 35.8555 68.3977 35.9968 68.4558 36.2137C68.5343 36.494 68.677 36.7521 68.8727 36.9676C69.0683 37.1831 69.3115 37.35 69.5829 37.4551C69.7843 37.5345 69.9276 37.5481 69.9257 37.5674Z" fill="#455A64"/>
<path d="M72.2322 56.643C72.1351 56.7537 72.019 56.8462 71.8894 56.9161C71.7534 57.0023 71.6052 57.0676 71.4498 57.1097C71.2542 57.1616 71.0479 57.1562 70.8553 57.0942C70.517 56.9667 70.2272 56.7364 70.0264 56.4358C69.9342 56.3228 69.8579 56.1977 69.7998 56.064C69.9043 56.1637 69.999 56.2733 70.0825 56.3913C70.2882 56.664 70.5659 56.8739 70.8843 56.9974C71.0469 57.0408 71.2165 57.0506 71.383 57.0263C71.5495 57.002 71.7093 56.9441 71.8526 56.856C71.975 56.7778 72.1017 56.7067 72.2322 56.643Z" fill="#455A64"/>
<path d="M70.752 57.772C70.5231 57.5349 70.3187 57.2754 70.142 56.9973C69.9383 56.7384 69.7606 56.4601 69.6113 56.1665C69.8418 56.4027 70.0469 56.6623 70.2233 56.9411C70.4286 57.1985 70.6058 57.477 70.752 57.772Z" fill="#455A64"/>
<path d="M60.8292 42.0856C60.802 42.0953 60.7343 41.9849 60.6742 41.8358C60.6142 41.6867 60.589 41.5608 60.6142 41.5492C60.6394 41.5375 60.7091 41.6499 60.7672 41.799C60.8253 41.9481 60.8543 42.0856 60.8292 42.0856Z" fill="#FAFAFA"/>
<path d="M64.5787 42.6238C64.5496 42.6238 64.5283 42.5289 64.5283 42.4108C64.5283 42.2926 64.5496 42.1958 64.5787 42.1958C64.6077 42.1958 64.629 42.2926 64.629 42.4108C64.629 42.5289 64.6058 42.6238 64.5787 42.6238Z" fill="#FAFAFA"/>
<path d="M63.0362 44.661C63.0091 44.661 62.9781 44.5448 62.9684 44.3957C62.9588 44.2465 62.9684 44.1265 62.9994 44.1245C63.0304 44.1226 63.0595 44.2407 63.0691 44.3899C63.0788 44.539 63.0633 44.659 63.0362 44.661Z" fill="#FAFAFA"/>
<path d="M60.2212 46.1523C60.198 46.1698 60.1186 46.0981 60.014 46.0245C59.9094 45.9509 59.8203 45.8948 59.8203 45.8676C59.8203 45.8405 59.9481 45.856 60.0663 45.9412C60.1844 46.0264 60.2444 46.1523 60.2212 46.1523Z" fill="#FAFAFA"/>
<path d="M65.1846 48.0521C65.1613 48.0366 65.1846 47.9533 65.2504 47.8584C65.3162 47.7635 65.3763 47.7093 65.3995 47.7248C65.4228 47.7403 65.3995 47.8255 65.3337 47.9185C65.2678 48.0114 65.2078 48.0676 65.1846 48.0521Z" fill="#FAFAFA"/>
<path d="M62.1207 48.5886C62.0936 48.5886 62.0703 48.4279 62.0703 48.2323C62.0703 48.0367 62.0936 47.874 62.1207 47.874C62.1478 47.874 62.171 48.0348 62.171 48.2323C62.171 48.4298 62.142 48.5886 62.1207 48.5886Z" fill="#FAFAFA"/>
<path d="M61.1173 50.7614C61.1018 50.7827 61.0011 50.7381 60.8927 50.6587C60.7842 50.5793 60.699 50.498 60.7242 50.4747C60.7493 50.4515 60.8423 50.498 60.9508 50.5774C61.0592 50.6568 61.1347 50.7381 61.1173 50.7614Z" fill="#FAFAFA"/>
<path d="M64.2203 51.5168C64.2319 51.5419 64.17 51.5942 64.0809 51.6349C63.9918 51.6756 63.9104 51.6852 63.8988 51.6601C63.8872 51.6349 63.9511 51.5826 64.0402 51.5419C64.1293 51.5013 64.2106 51.4916 64.2203 51.5168Z" fill="#FAFAFA"/>
<path d="M62.1209 55.0609C62.0976 55.0725 61.9969 54.9234 61.8982 54.7259C61.7994 54.5283 61.7394 54.3579 61.7645 54.3385C61.7897 54.3192 61.8904 54.476 61.9872 54.6736C62.0841 54.8711 62.1383 55.0396 62.1209 55.0609Z" fill="#FAFAFA"/>
<path d="M65.5432 54.7314C65.518 54.7179 65.5626 54.5881 65.64 54.439C65.7175 54.2899 65.8046 54.1814 65.8337 54.195C65.8627 54.2085 65.8143 54.3383 65.7349 54.4874C65.6555 54.6365 65.5664 54.745 65.5432 54.7314Z" fill="#FAFAFA"/>
<path d="M64.0414 57.7315C64.0124 57.7315 64.0163 57.5746 63.9853 57.3925C63.9543 57.2105 63.9078 57.0653 63.9349 57.0517C63.962 57.0381 64.055 57.1756 64.086 57.3771C64.117 57.5785 64.0686 57.7373 64.0414 57.7315Z" fill="#FAFAFA"/>
<path d="M62.4347 59.4451C62.4153 59.4644 62.3185 59.3908 62.2197 59.2824C62.1209 59.1739 62.057 59.0713 62.0783 59.0519C62.0996 59.0326 62.1945 59.1062 62.2933 59.2146C62.3921 59.3231 62.456 59.4257 62.4347 59.4451Z" fill="#FAFAFA"/>
<path d="M66.3352 60.096C66.3158 60.0766 66.3875 59.972 66.4959 59.8616C66.6044 59.7512 66.7051 59.6796 66.7264 59.699C66.7477 59.7183 66.6741 59.8248 66.5676 59.9333C66.4611 60.0417 66.3565 60.1153 66.3352 60.096Z" fill="#FAFAFA"/>
<path d="M64.0926 62.6621C64.0655 62.6621 64.0655 62.5091 64.0926 62.3309C64.1197 62.1527 64.1623 62.0133 64.1914 62.0172C64.2204 62.021 64.2185 62.1682 64.1914 62.3464C64.1643 62.5246 64.1197 62.6659 64.0926 62.6621Z" fill="#FAFAFA"/>
<path d="M62.5839 63.9072C62.5587 63.9207 62.4735 63.82 62.3902 63.6825C62.3069 63.545 62.2643 63.423 62.2875 63.4094C62.3108 63.3959 62.396 63.4947 62.4812 63.6322C62.5664 63.7697 62.6071 63.8917 62.5839 63.9072Z" fill="#FAFAFA"/>
<path d="M66.2184 65.4779C66.2358 65.5012 66.1371 65.5999 65.9976 65.6987C65.8582 65.7975 65.7362 65.8594 65.7188 65.8362C65.7013 65.813 65.802 65.7142 65.9395 65.6154C66.077 65.5166 66.2029 65.4566 66.2184 65.4779Z" fill="#FAFAFA"/>
<path d="M63.19 67.5169C63.1629 67.5072 63.19 67.3523 63.2152 67.1587C63.2403 66.965 63.2249 66.8062 63.2539 66.8023C63.283 66.7984 63.3333 66.9611 63.3139 67.1683C63.2946 67.3755 63.2152 67.5285 63.19 67.5169Z" fill="#FAFAFA"/>
<path d="M64.4003 70.4451C64.3771 70.4625 64.2957 70.3966 64.2163 70.2979C64.1369 70.1991 64.0924 70.1042 64.1137 70.0868C64.135 70.0694 64.2163 70.1352 64.2957 70.234C64.3752 70.3327 64.4216 70.4276 64.4003 70.4451Z" fill="#FAFAFA"/>
<path d="M63.0777 72.4086C63.0545 72.4241 62.9479 72.3099 62.8395 72.1511C62.731 71.9923 62.6633 71.8528 62.6846 71.8373C62.7059 71.8219 62.8143 71.9361 62.9228 72.0949C63.0312 72.2537 63.1009 72.3931 63.0777 72.4086Z" fill="#FAFAFA"/>
<path d="M66.7203 69.9435C66.6951 69.9338 66.6971 69.8621 66.7203 69.7846C66.7436 69.7072 66.7958 69.6491 66.823 69.6588C66.8501 69.6685 66.8462 69.7401 66.823 69.8195C66.7997 69.8989 66.7474 69.9551 66.7203 69.9435Z" fill="#FAFAFA"/>
<path d="M65.1124 74.6205C65.0872 74.607 65.1357 74.4695 65.1744 74.2971C65.2131 74.1247 65.2267 73.9795 65.2557 73.9776C65.2848 73.9756 65.3138 74.1325 65.2732 74.3184C65.2325 74.5043 65.1357 74.636 65.1124 74.6205Z" fill="#FAFAFA"/>
<path d="M66.1585 44.6922C66.1333 44.7038 66.0713 44.6263 66.021 44.5179C65.9706 44.4094 65.9493 44.3126 65.9745 44.301C65.9996 44.2893 66.0616 44.3668 66.112 44.4753C66.1623 44.5837 66.1875 44.6805 66.1585 44.6922Z" fill="#FAFAFA"/>
<path d="M63.4763 38.6616C63.4918 38.6848 63.3562 38.7933 63.2109 38.9482C63.0657 39.1031 62.9669 39.2464 62.9418 39.2329C62.9166 39.2193 62.9824 39.0392 63.1354 38.8804C63.2884 38.7216 63.4569 38.6364 63.4763 38.6616Z" fill="#FAFAFA"/>
<path d="M65.8644 38.5995C65.8354 38.5995 65.7908 38.4891 65.7231 38.3574C65.6553 38.2258 65.5933 38.1173 65.6146 38.0979C65.6359 38.0786 65.7405 38.1638 65.8083 38.311C65.8761 38.4581 65.8896 38.584 65.8644 38.5995Z" fill="#FAFAFA"/>
<path d="M58.4081 40.5573C58.383 40.5457 58.4081 40.4178 58.4682 40.2707C58.5282 40.1235 58.5941 40.0092 58.6212 40.0208C58.6483 40.0325 58.6212 40.1583 58.5611 40.3075C58.5011 40.4566 58.4411 40.567 58.4081 40.5573Z" fill="#FAFAFA"/>
<path d="M58.6499 43.4817C58.6305 43.503 58.5201 43.4411 58.402 43.3423C58.2838 43.2435 58.2083 43.1486 58.2199 43.1254C58.2315 43.1021 58.3497 43.1661 58.4678 43.2648C58.586 43.3636 58.6673 43.4604 58.6499 43.4817Z" fill="#FAFAFA"/>
<path d="M63.5424 36.3393C63.5172 36.3393 63.463 36.2773 63.4243 36.1785C63.3855 36.0798 63.3739 35.9849 63.3991 35.9849C63.4243 35.9849 63.4785 36.0468 63.5172 36.1456C63.5559 36.2444 63.5676 36.3296 63.5424 36.3393Z" fill="#FAFAFA"/>
<path d="M68.2266 37.7684C68.1995 37.7684 68.2015 37.6464 68.2266 37.5089C68.2518 37.3714 68.3022 37.263 68.3293 37.2688C68.3564 37.2746 68.3545 37.3927 68.3293 37.5302C68.3041 37.6677 68.2538 37.7742 68.2266 37.7684Z" fill="#FAFAFA"/>
<path d="M69.3265 39.9822C69.3014 39.9705 69.3362 39.8272 69.4059 39.6587C69.4756 39.4903 69.5512 39.3644 69.5764 39.3741C69.6015 39.3837 69.5764 39.529 69.4989 39.6975C69.4214 39.866 69.3536 39.9918 69.3265 39.9822Z" fill="#FAFAFA"/>
<path d="M68.5428 41.7677C68.5176 41.7793 68.4247 41.6457 68.3356 41.4694C68.2465 41.2932 68.1961 41.1363 68.2213 41.1247C68.2465 41.1131 68.3375 41.2467 68.4266 41.423C68.5157 41.5992 68.568 41.7541 68.5428 41.7677Z" fill="#FAFAFA"/>
<path d="M70.22 43.5533C70.1948 43.5437 70.22 43.4313 70.2626 43.3035C70.3052 43.1757 70.373 43.0789 70.4001 43.0886C70.4272 43.0982 70.4001 43.2106 70.3575 43.3384C70.3149 43.4662 70.2549 43.563 70.22 43.5533Z" fill="#FAFAFA"/>
<path d="M68.7207 45.302C68.6974 45.3175 68.6374 45.2653 68.589 45.1878C68.5406 45.1103 68.5173 45.0329 68.5425 45.0174C68.5677 45.0019 68.6238 45.0542 68.6742 45.1336C68.7245 45.213 68.7439 45.2885 68.7207 45.302Z" fill="#FAFAFA"/>
<path d="M69.0403 48.9118C69.0209 48.9292 68.8989 48.8343 68.7711 48.6949C68.6433 48.5554 68.5561 48.4295 68.5774 48.4102C68.5987 48.3908 68.7188 48.4876 68.8466 48.6271C68.9744 48.7665 69.0616 48.8924 69.0403 48.9118Z" fill="#FAFAFA"/>
<path d="M71.0063 46.8381C70.985 46.8555 70.8785 46.7587 70.7701 46.6192C70.6616 46.4798 70.5919 46.3559 70.6132 46.3384C70.6345 46.321 70.741 46.4198 70.8495 46.5573C70.9579 46.6948 71.0296 46.8226 71.0063 46.8381Z" fill="#FAFAFA"/>
<path d="M72.0842 49.6982C72.059 49.6866 72.1035 49.5413 72.183 49.3748C72.2624 49.2082 72.3456 49.0804 72.3766 49.092C72.4076 49.1037 72.3592 49.2508 72.2798 49.4174C72.2004 49.5839 72.1094 49.7118 72.0842 49.6982Z" fill="#FAFAFA"/>
<path d="M69.7918 52.053C69.7666 52.0665 69.6775 51.96 69.5536 51.8458C69.4296 51.7315 69.3154 51.6521 69.327 51.6231C69.3386 51.594 69.4858 51.6463 69.6214 51.7722C69.7569 51.8981 69.815 52.0394 69.7918 52.053Z" fill="#FAFAFA"/>
<path d="M69.9348 54.4796C69.9348 54.5067 69.838 54.5299 69.7199 54.5299C69.6017 54.5299 69.5068 54.5067 69.5068 54.4796C69.5068 54.4524 69.6017 54.4292 69.7199 54.4292C69.838 54.4292 69.9348 54.4524 69.9348 54.4796Z" fill="#FAFAFA"/>
<path d="M72.2919 53.8018C72.2668 53.7882 72.3171 53.6662 72.3539 53.5152C72.3907 53.3641 72.4062 53.2324 72.4353 53.2305C72.4643 53.2286 72.4953 53.3699 72.4527 53.5384C72.4101 53.7069 72.3132 53.8173 72.2919 53.8018Z" fill="#FAFAFA"/>
<path d="M74.6331 54.6169C74.6079 54.6266 74.5363 54.4891 74.4743 54.3129C74.4123 54.1367 74.3833 53.9856 74.4085 53.9779C74.4336 53.9701 74.5072 54.1037 74.5692 54.28C74.6312 54.4562 74.6602 54.6073 74.6331 54.6169Z" fill="#FAFAFA"/>
<path d="M74.2599 57.9482C74.2366 57.9347 74.2967 57.772 74.3935 57.5841C74.4903 57.3963 74.5872 57.2549 74.6162 57.2685C74.6453 57.282 74.5814 57.4447 74.4826 57.6306C74.3838 57.8165 74.2851 57.9657 74.2599 57.9482Z" fill="#FAFAFA"/>
<path d="M72.1239 59.9025C72.0987 59.9122 72.0193 59.7785 71.9457 59.6023C71.8721 59.4261 71.8353 59.275 71.8624 59.2634C71.8895 59.2518 71.967 59.3873 72.0387 59.5636C72.1103 59.7398 72.149 59.9025 72.1239 59.9025Z" fill="#FAFAFA"/>
<path d="M69.7567 60.6592C69.7567 60.6864 69.6754 60.7096 69.5766 60.7096C69.4778 60.7096 69.3984 60.6864 69.3984 60.6592C69.3984 60.6321 69.4798 60.6089 69.5766 60.6089C69.6734 60.6089 69.7567 60.6321 69.7567 60.6592Z" fill="#FAFAFA"/>
<path d="M71.1124 63.7754C71.0872 63.7754 71.033 63.6689 70.9923 63.5217C70.9516 63.3746 70.9439 63.2467 70.971 63.2409C70.9981 63.2351 71.0504 63.3475 71.0911 63.4946C71.1317 63.6418 71.1395 63.76 71.1124 63.7754Z" fill="#FAFAFA"/>
<path d="M69.3985 62.7296C69.3752 62.7161 69.3985 62.6251 69.4624 62.5263C69.5263 62.4275 69.5902 62.3598 69.6134 62.3733C69.6367 62.3869 69.6134 62.4798 69.5495 62.5786C69.4856 62.6774 69.4236 62.7451 69.3985 62.7296Z" fill="#FAFAFA"/>
<path d="M69.3642 66.1594C69.3371 66.1594 69.2983 66.0297 69.279 65.8612C69.2596 65.6927 69.2654 65.5552 69.2925 65.5514C69.3197 65.5475 69.3584 65.6811 69.3778 65.8496C69.3971 66.0181 69.3913 66.1556 69.3642 66.1594Z" fill="#FAFAFA"/>
</svg>
